<svg width="124" height="33" viewBox="0 0 124 33" fill="none" xmlns="http://www.w3.org/2000/svg">
<g clip-path="url(#clip0_2081_3621)">
<path d="M13.8332 0.338379H0.255127V32.8106L13.8332 0.338379Z" fill="#9F9F9F"/>
<path d="M23.3865 0.338257H36.9468V32.8105L23.3865 0.338257Z" fill="#9F9F9F"/>
<path d="M18.6097 12.3063L27.2519 32.8104H21.5819L18.9989 26.2823H12.6743L18.6097 12.3063Z" fill="#9F9F9F"/>
<path d="M59.0982 20.9885L60.6993 25.5794C60.7524 25.6943 60.832 25.7474 60.9735 25.7474H64.0518C64.2199 25.7474 64.2464 25.6678 64.2198 25.4998L57.8598 7.83506C57.8333 7.69353 57.8068 7.66699 57.6652 7.66699H53.8439C53.7378 7.66699 53.6759 7.7466 53.6759 7.86159C53.6228 8.79039 53.5432 9.07345 53.4282 9.34766L47.7581 25.4732C47.7316 25.6678 47.7935 25.7474 47.9527 25.7474H50.7037C50.8718 25.7474 50.9514 25.6943 51.0133 25.5263L52.5259 20.9885H59.0982ZM53.4017 17.9898C54.2331 15.4777 55.33 12.2579 55.7723 10.418H55.7988C56.3472 12.3463 57.6387 16.1676 58.2225 17.9898H53.4017Z" fill="#9F9F9F"/>
<path d="M72.3961 26.0217C74.0502 26.0217 75.8105 25.7209 77.5973 24.9513C77.7389 24.8983 77.7654 24.8364 77.7654 24.7037C77.7123 24.2083 77.6504 23.4918 77.6504 22.9434V6.31364C77.6504 6.20749 77.6504 6.15442 77.5177 6.15442H74.5191C74.4041 6.15442 74.351 6.20749 74.351 6.34902V11.9837C73.8822 11.9306 73.5549 11.9041 73.1657 11.9041C68.3271 11.9041 65.355 15.0973 65.355 19.0867C65.355 23.713 68.4067 26.0217 72.3961 26.0217ZM74.351 22.9434C73.8556 23.1026 73.3072 23.1645 72.7499 23.1645C70.5562 23.1645 68.7605 21.9262 68.7605 18.9186C68.7605 16.2561 70.6093 14.6816 73.0595 14.6816C73.5549 14.6816 73.9883 14.7347 74.351 14.8762V22.9434Z" fill="#9F9F9F"/>
<path d="M87.3318 11.9041C83.2009 11.9041 80.6445 15.0708 80.6445 18.9805C80.6445 22.4746 82.679 26.0217 87.2699 26.0217C91.1531 26.0217 93.8776 23.1645 93.8776 18.8921C93.8776 15.1239 91.5689 11.9041 87.3318 11.9041ZM87.1638 14.6816C89.499 14.6816 90.4897 16.6895 90.4897 18.9805C90.4897 21.8111 89.0302 23.2176 87.3318 23.2176C85.2354 23.2176 83.997 21.4573 83.997 18.9186C83.997 16.3092 85.315 14.6816 87.1638 14.6816Z" fill="#9F9F9F"/>
<path d="M96.9776 6.15442C96.8626 6.15442 96.783 6.20749 96.783 6.34902V25.1725C96.783 25.2521 96.8626 25.3936 96.9776 25.4202C98.2956 25.8271 99.6755 26.0217 101.1 26.0217C105.177 26.0217 109.14 23.4918 109.14 18.3967C109.14 14.7081 106.61 11.9041 102.648 11.9041C101.737 11.9041 100.887 12.0456 100.144 12.2933L100.109 6.37556C100.109 6.18096 100.056 6.15442 99.8612 6.15442H96.9776ZM105.752 18.7329C105.752 21.7846 103.665 23.2176 101.409 23.2176C100.94 23.2176 100.525 23.1911 100.144 23.0761V15.0443C100.578 14.8762 101.1 14.7347 102.064 14.7347C104.24 14.7347 105.752 16.1146 105.752 18.7329Z" fill="#9F9F9F"/>
<path d="M120.331 19.7236C121.676 19.7236 122.782 19.697 123.162 19.6086C123.303 19.582 123.357 19.529 123.383 19.414C123.463 19.1132 123.498 18.4852 123.498 17.7156C123.498 15.0973 121.924 11.9041 117.855 11.9041C113.697 11.9041 111.388 15.2919 111.388 19.1132C111.388 22.5011 113.175 26.0217 118.182 26.0217C120.057 26.0217 121.269 25.7209 122.313 25.2255C122.419 25.1725 122.472 25.084 122.472 24.9248V22.6338C122.472 22.5011 122.392 22.4746 122.313 22.5276C121.269 22.9699 120.137 23.1911 118.898 23.1911C116.094 23.1911 114.821 21.6431 114.741 19.7236H120.331ZM114.741 17.353C114.962 16.0084 115.811 14.5489 117.713 14.5489C119.809 14.5489 120.358 16.3092 120.358 17.1053C120.358 17.1318 120.358 17.2468 120.358 17.3264C120.243 17.353 119.889 17.353 118.845 17.353H114.741Z" fill="#9F9F9F"/>
</g>
<defs>
<clipPath id="clip0_2081_3621">
<rect width="123.243" height="32.4722" fill="white" transform="translate(0.255127 0.338379)"/>
</clipPath>
</defs>
</svg>
