<svg width="123" height="38" viewBox="0 0 123 38" fill="none" xmlns="http://www.w3.org/2000/svg">
<g style="mix-blend-mode:luminosity">
<path fill-rule="evenodd" clip-rule="evenodd" d="M76.3069 29.7275C69.1591 35.1218 58.7988 37.9999 49.8789 37.9999C37.3718 37.9999 26.1121 33.2635 17.5937 25.3857C16.9244 24.7663 17.524 23.922 18.3271 24.4044C27.5202 29.881 38.8869 33.1757 50.6286 33.1757C58.5472 33.1757 67.2586 31.4982 75.2683 28.0171C76.4783 27.4908 77.4902 28.8284 76.3069 29.7275Z" fill="#9CABAB"/>
</g>
<g style="mix-blend-mode:luminosity">
<path fill-rule="evenodd" clip-rule="evenodd" d="M79.2784 26.2463C78.3682 25.0513 73.2389 25.6817 70.9367 25.9613C70.2354 26.0491 70.1282 25.4239 70.76 24.9743C74.8451 22.0306 81.5486 22.8804 82.3304 23.8671C83.1119 24.8593 82.1267 31.7395 78.2879 35.023C77.699 35.5274 77.1367 35.2589 77.3992 34.5902C78.261 32.3862 80.194 27.447 79.2784 26.2463" fill="#9CABAB"/>
</g>
<path fill-rule="evenodd" clip-rule="evenodd" d="M71.0974 4.19217V1.33058C71.0974 0.897529 71.4187 0.607083 71.804 0.607083H84.3167C84.7182 0.607083 85.0396 0.902965 85.0396 1.33058V3.78087C85.0341 4.19196 84.6967 4.72915 84.0971 5.57895L77.6132 15.0574C80.0226 14.997 82.5658 15.3644 84.7504 16.6253C85.2428 16.9103 85.3768 17.3268 85.4142 17.7381V20.7915C85.4142 21.2082 84.9645 21.6961 84.4933 21.4439C80.6437 19.3773 75.5305 19.1525 71.2739 21.4658C70.8403 21.7072 70.3853 21.2247 70.3853 20.808V17.9081C70.3853 17.4423 70.3906 16.6473 70.8456 15.9403L78.3576 4.91024H71.8202C71.4187 4.91024 71.0972 4.61958 71.0972 4.19217M25.4535 22.0472H21.6468C21.2826 22.02 20.9934 21.7402 20.9667 21.3839V1.37993C20.9667 0.979707 21.2934 0.661659 21.7003 0.661659H25.2501C25.6195 0.678178 25.9138 0.968624 25.9408 1.33058V3.94543H26.0102C26.9366 1.4182 28.6768 0.239687 31.0219 0.239687C33.4044 0.239687 34.8927 1.4182 35.9637 3.94543C36.8845 1.4182 38.978 0.239687 41.2215 0.239687C42.8169 0.239687 44.5624 0.913839 45.6278 2.42692C46.8325 4.11 46.5862 6.55484 46.5862 8.69837L46.5809 21.3237C46.5809 21.7237 46.2541 22.0472 45.8473 22.0472H42.0459C41.6658 22.02 41.3605 21.7074 41.3605 21.3237V10.721C41.3605 9.87688 41.4355 7.77162 41.2535 6.97138C40.9696 5.6283 40.1184 5.25003 39.0154 5.25003C38.0944 5.25003 37.1308 5.88048 36.74 6.8892C36.3491 7.89771 36.3866 9.58622 36.3866 10.721V21.3234C36.3866 21.7235 36.0599 22.0469 35.6531 22.0469H31.8516C31.4663 22.0198 31.1663 21.7072 31.1663 21.3234L31.161 10.721C31.161 8.48989 31.5198 5.20612 28.8158 5.20612C26.0799 5.20612 26.1871 8.4075 26.1871 10.721V21.3234C26.1871 21.7235 25.8603 22.0469 25.4535 22.0469M95.812 0.239687C101.46 0.239687 104.518 5.20633 104.518 11.5217C104.518 17.6233 101.139 22.4639 95.812 22.4639C90.2651 22.4639 87.2454 17.4971 87.2454 11.3078C87.2454 5.08024 90.3027 0.239687 95.812 0.239687ZM95.8441 4.3237C93.0385 4.3237 92.8618 8.23792 92.8618 10.6773C92.8618 13.1224 92.8244 18.3414 95.812 18.3414C98.7621 18.3414 98.9013 14.1311 98.9013 11.5656C98.9013 9.87709 98.8317 7.85965 98.3336 6.25896C97.9053 4.86632 97.0541 4.3237 95.8441 4.3237ZM111.842 22.0472H108.051C107.671 22.02 107.366 21.7074 107.366 21.3237L107.361 1.31406C107.393 0.946668 107.709 0.661659 108.094 0.661659H111.622C111.954 0.678178 112.227 0.908402 112.303 1.2208V4.28H112.372C113.437 1.54429 114.931 0.239687 117.56 0.239687C119.268 0.239687 120.933 0.869927 122.004 2.59692C123 4.19761 123 6.88941 123 8.82446V21.4167C122.957 21.7676 122.641 22.0472 122.266 22.0472H118.449C118.101 22.02 117.812 21.7565 117.774 21.4167V10.5512C117.774 8.36401 118.021 5.16263 115.392 5.16263C114.465 5.16263 113.614 5.7983 113.191 6.76332C112.656 7.98574 112.586 9.20273 112.586 10.5512V21.3237C112.581 21.7237 112.249 22.0472 111.842 22.0472M61.1225 12.4921C61.1225 14.0104 61.1601 15.2768 60.4106 16.6255C59.8055 17.7218 58.8417 18.3962 57.7763 18.3962C56.3147 18.3962 55.4579 17.256 55.4579 15.5729C55.4579 12.2508 58.3653 11.6478 61.1227 11.6478L61.1225 12.4921ZM64.9615 21.9924C64.7099 22.2226 64.3458 22.2391 64.0621 22.0856C62.7984 21.011 62.5682 20.5121 61.8775 19.4871C59.7895 21.6689 58.3064 22.3213 55.6025 22.3213C52.3954 22.3213 49.9057 20.2984 49.9057 16.2472C49.9057 13.0841 51.5762 10.9297 53.9642 9.87709C56.031 8.94511 58.9167 8.78055 61.1227 8.52293V8.01857C61.1227 7.09224 61.1921 5.9957 60.6569 5.19545C60.1963 4.47718 59.3076 4.1813 58.5207 4.1813C57.0695 4.1813 55.7792 4.94328 55.4634 6.52201C55.3991 6.87289 55.1475 7.21833 54.7993 7.23464L51.1104 6.82898C50.8 6.75788 50.4518 6.50006 50.5429 6.01222C51.3888 1.42928 55.4365 0.0477295 59.0559 0.0477295C60.9083 0.0477295 63.3283 0.552089 64.7902 1.98822C66.6427 3.75912 66.466 6.12179 66.466 8.69293V14.767C66.466 16.5925 67.2049 17.3929 67.9009 18.3797C68.1419 18.7306 68.1954 19.1527 67.8848 19.4158C67.1085 20.0791 65.7271 21.3126 64.9668 22.0032L64.9615 21.9924ZM11.2168 12.4921C11.2168 14.0104 11.2544 15.2768 10.5049 16.6255C9.89977 17.7218 8.94135 18.3962 7.8704 18.3962C6.40897 18.3962 5.55756 17.256 5.55756 15.5729C5.55756 12.2508 8.46489 11.6478 11.2168 11.6478V12.4921ZM15.0558 21.9924C14.8042 22.2226 14.4401 22.2391 14.1562 22.0856C12.8927 21.011 12.6678 20.5121 11.9718 19.4871C9.88364 21.6689 8.40608 22.3213 5.69684 22.3213C2.49501 22.3213 0 20.2984 0 16.2472C0 13.0841 1.67586 10.9297 4.05835 9.87709C6.1251 8.94511 9.01099 8.78055 11.2168 8.52293V8.01857C11.2168 7.09224 11.2865 5.9957 10.7565 5.19545C10.2907 4.47718 9.40187 4.1813 8.62031 4.1813C7.16909 4.1813 5.87349 4.94328 5.55756 6.52201C5.49343 6.87289 5.24162 7.21833 4.89914 7.23464L1.20472 6.82898C0.894298 6.75788 0.551406 6.50006 0.636976 6.01222C1.48859 1.42928 5.5308 0.0477295 9.15027 0.0477295C11.0026 0.0477295 13.4226 0.552089 14.8845 1.98822C16.737 3.75912 16.5603 6.12179 16.5603 8.69293V14.767C16.5603 16.5925 17.2992 17.3929 17.9952 18.3797C18.2415 18.7306 18.295 19.1527 17.9844 19.4158C17.2081 20.0791 15.8268 21.3126 15.0664 22.0032L15.0558 21.9924Z" fill="#9F9F9F"/>
</svg>
