<svg width="89" height="38" viewBox="0 0 89 38" fill="none" xmlns="http://www.w3.org/2000/svg">
<path d="M87.8279 18.7746C87.8279 18.5463 87.8279 18.31 87.8279 18.0654C87.8279 17.8046 87.8036 17.5518 87.7546 17.3073C87.722 17.0627 87.6975 16.8181 87.6812 16.5736C87.6649 16.329 87.6324 16.1008 87.5834 15.8889H73.9619L69.8288 22.3694H80.2958C79.9859 23.4619 79.5376 24.4564 78.9508 25.353C78.3801 26.2334 77.6953 26.9996 76.8965 27.6517V27.6762C76.065 28.3283 75.1438 28.8419 74.1331 29.2169C73.1386 29.5756 72.0788 29.755 70.9539 29.755C70.9213 29.755 70.8886 29.755 70.856 29.755C70.8397 29.755 70.8315 29.755 70.8315 29.755C69.3642 29.755 67.9784 29.4615 66.6741 28.8745C65.3699 28.2877 64.2531 27.505 63.3237 26.5268C62.3619 25.4997 61.6038 24.3258 61.0495 23.0053C60.4951 21.6847 60.218 20.2745 60.218 18.7746C60.218 18.7583 60.218 18.7501 60.218 18.7501C60.218 18.7338 60.218 18.7093 60.218 18.6767C60.218 17.1931 60.4951 15.7992 61.0495 14.4949C61.6038 13.1743 62.37 12.0249 63.3482 11.0467C64.3101 10.0685 65.4433 9.28595 66.7476 8.69901C68.0518 8.11209 69.4377 7.81863 70.9049 7.81863C70.9049 7.81863 70.9133 7.81863 70.9294 7.81863C70.9457 7.81863 70.9539 7.81863 70.9539 7.81863C70.9539 7.81863 70.9623 7.81863 70.9783 7.81863C71.0109 7.81863 71.0272 7.81863 71.0272 7.81863C71.6467 7.81863 72.2582 7.87575 72.8614 7.98983C73.4808 8.08762 74.076 8.23437 74.6465 8.43001L74.5243 8.38105C75.1113 8.59301 75.6574 8.83756 76.1628 9.1147C76.6682 9.39188 77.141 9.69349 77.5813 10.0196V9.99507L79.4154 7.08492L81.2495 4.15028C80.5648 3.67748 79.8311 3.25359 79.0485 2.87861C78.2823 2.50363 77.4833 2.18572 76.6519 1.92487L76.5296 1.87591C75.7145 1.64766 74.8422 1.46832 73.913 1.3379C72.9836 1.19116 72.0462 1.11779 71.1006 1.11779C71.068 1.11779 71.0435 1.11779 71.0272 1.11779C71.0272 1.11779 71.0109 1.11779 70.9783 1.11779C70.9621 1.11779 70.9376 1.11779 70.9049 1.11779C70.8886 1.11779 70.8641 1.11779 70.8315 1.11779C69.5762 1.11779 68.3534 1.23191 67.1632 1.46017C65.9894 1.68841 64.8481 2.03079 63.7396 2.48729L63.8863 2.43833C62.8102 2.91113 61.8077 3.45731 60.8783 4.07685C59.949 4.69636 59.1013 5.38928 58.3349 6.15553C57.422 7.11744 56.6475 8.06303 56.0117 8.99235C55.3922 9.95424 54.8786 10.8917 54.4711 11.8047C54.0634 12.7177 53.7292 13.6388 53.4684 14.5681C53.2238 15.4648 53.0037 16.3534 52.8081 17.2337C52.4331 18.962 52.0418 20.6086 51.6343 22.1736C51.2266 23.7388 50.387 25.1492 49.1154 26.4044C48.6263 26.9099 48.0882 27.3745 47.5012 27.7985C46.9307 28.206 46.3355 28.5483 45.716 28.8254L45.6426 28.8744C45.0231 29.119 44.371 29.3147 43.6862 29.4614C43.0178 29.6081 42.3087 29.6814 41.5587 29.6814C41.5587 29.6814 41.5424 29.6814 41.5097 29.6814C41.4934 29.6814 41.4852 29.6814 41.4852 29.6814C39.9692 29.6814 38.5425 29.388 37.2056 28.8011C35.8687 28.2141 34.6949 27.4153 33.684 26.4044C32.7059 25.4426 31.9233 24.2932 31.3363 22.9563C30.7495 21.6031 30.4561 20.1683 30.4561 18.6521C30.4561 17.1848 30.7413 15.799 31.3119 14.4947C31.8825 13.1742 32.6651 12.0248 33.6596 11.0466C34.6541 10.0521 35.8198 9.26134 37.1567 8.67442C38.4936 8.07119 39.9202 7.76958 41.4364 7.76958C42.0722 7.76958 42.6917 7.82669 43.2951 7.94077C43.8982 8.03857 44.4932 8.17716 45.0802 8.3565H44.9823C45.5693 8.53584 46.1074 8.76408 46.5965 9.04126C47.0856 9.3021 47.5584 9.59556 48.0148 9.92164H47.966L49.8244 7.01146L51.7075 4.05238C51.0391 3.59588 50.3135 3.18015 49.531 2.80517C48.7648 2.43019 47.9578 2.11228 47.11 1.85141H47.0121C46.197 1.59056 45.3247 1.39492 44.3954 1.26449C43.4824 1.13406 42.545 1.06885 41.5831 1.06885C41.5668 1.06885 41.5423 1.06885 41.5097 1.06885C41.4934 1.06885 41.477 1.06885 41.4608 1.06885C41.4608 1.06885 41.4524 1.06885 41.4364 1.06885C41.42 1.06885 41.4119 1.06885 41.4119 1.06885C39.8956 1.06885 38.4284 1.25634 37.0099 1.63132C35.6079 1.98999 34.2873 2.4954 33.0482 3.14753L33.1216 3.12305C31.8988 3.74259 30.7739 4.50069 29.7467 5.39738C28.7196 6.29406 27.8067 7.28044 27.0077 8.35647L26.9589 8.38094C26.6328 7.40273 26.1599 6.51419 25.5404 5.71532C24.9209 4.90015 24.1872 4.22356 23.3394 3.68555H23.3149C22.4183 3.09861 21.432 2.64212 20.3559 2.31605C19.2799 1.97368 18.1549 1.80249 16.9811 1.80249C16.9321 1.80249 16.8914 1.80249 16.8588 1.80249C16.8262 1.80249 16.8017 1.80249 16.7855 1.80249H1.06079V35.6974H18.424C18.4567 35.6974 18.4892 35.6974 18.5218 35.6974C18.5545 35.6974 18.5789 35.6974 18.5952 35.6974C19.6387 35.6974 20.6332 35.567 21.5788 35.3062C22.5243 35.0616 23.4211 34.711 24.2689 34.2546L24.1954 34.2791C24.9943 33.8388 25.7117 33.3172 26.3475 32.7139C26.9996 32.0944 27.5458 31.4096 27.9859 30.6596L28.0349 30.5863C28.8174 31.483 29.6897 32.2818 30.6516 32.9829C31.6136 33.6838 32.6326 34.2953 33.7085 34.8171L33.8308 34.8414C34.9069 35.3305 36.0644 35.7137 37.3035 35.9908C38.5425 36.2844 39.8304 36.4311 41.1673 36.4311C41.1673 36.4311 41.1757 36.4311 41.1918 36.4311C41.2081 36.4311 41.2244 36.4311 41.2408 36.4311C41.2734 36.4311 41.2979 36.4311 41.3141 36.4311C41.3304 36.4311 41.3549 36.4311 41.3875 36.4311C42.9038 36.4311 44.3792 36.2436 45.8138 35.8686C47.2486 35.5099 48.5855 34.9881 49.8245 34.3035L49.7512 34.3769C51.0228 33.7084 52.1722 32.9177 53.1993 32.0047C54.2265 31.0754 55.1395 30.0483 55.9384 28.9234L55.9629 28.85C56.7454 29.9912 57.642 31.0265 58.6528 31.9559C59.6799 32.8688 60.7887 33.6513 61.9787 34.3036L62.0521 34.3524C63.2913 35.0045 64.6281 35.51 66.0628 35.8687C67.4974 36.2437 68.9892 36.4312 70.5381 36.4312C70.5381 36.4312 70.5465 36.4312 70.5625 36.4312C70.5789 36.4312 70.6033 36.4312 70.636 36.4312C70.6522 36.4312 70.6685 36.4312 70.6848 36.4312C70.7011 36.4312 70.7093 36.4312 70.7093 36.4312C71.8995 36.4312 73.057 36.3089 74.1819 36.0643C75.307 35.8197 76.3829 35.4693 77.4101 35.0127C78.4535 34.5726 79.4317 34.0345 80.3446 33.3987C81.2577 32.7466 82.0973 32.021 82.8635 31.2222C83.646 30.4397 84.339 29.5756 84.9423 28.63C85.5455 27.7006 86.0591 26.7143 86.4829 25.6708C86.9068 24.6275 87.2329 23.5351 87.4612 22.3939C87.7057 21.269 87.8279 20.0951 87.8279 18.8723C87.8279 18.856 87.8279 18.8396 87.8279 18.8233C87.8279 18.8071 87.8279 18.7909 87.8279 18.7746ZM8.37302 15.5709V8.06318H16.7122C16.7286 8.06318 16.7367 8.06318 16.7367 8.06318C17.2585 8.06318 17.7394 8.16097 18.1795 8.35665C18.6198 8.53599 19.0192 8.79683 19.3779 9.13922H19.3534C19.6958 9.48159 19.9567 9.87287 20.1361 10.3131C20.3316 10.7533 20.4295 11.2261 20.4295 11.7315C20.4295 11.7315 20.4295 11.7399 20.4295 11.7559C20.4295 11.7723 20.4295 11.7804 20.4295 11.7804C20.4295 11.8131 20.4295 11.8294 20.4295 11.8294C20.4295 11.8294 20.4295 11.8457 20.4295 11.8783C20.4295 12.3674 20.3316 12.8403 20.1361 13.2967C19.9567 13.7369 19.7039 14.1282 19.3779 14.4706H19.3534C19.011 14.813 18.6198 15.082 18.1795 15.2776C17.7394 15.4733 17.2585 15.5711 16.7367 15.5711C16.7367 15.5711 16.7283 15.5711 16.7122 15.5711L8.37302 15.5709ZM8.37302 29.4371V21.7336H18.3262C18.3425 21.7336 18.3507 21.7336 18.3507 21.7336C18.8888 21.7336 19.3942 21.8314 19.8669 22.0271C20.356 22.2227 20.7882 22.4837 21.163 22.8098C21.5217 23.152 21.8072 23.5596 22.019 24.0324C22.231 24.5052 22.3369 25.0024 22.3369 25.5242C22.3369 25.5242 22.3369 25.5326 22.3369 25.5486C22.3369 26.103 22.2309 26.6166 22.019 27.0894C21.8072 27.5621 21.5136 27.9779 21.1387 28.3365C20.78 28.6952 20.356 28.9725 19.8669 29.168C19.3942 29.3636 18.8806 29.4615 18.3262 29.4615H8.37302V29.4371Z" fill="#9F9F9F"/>
</svg>
