<svg width="127" height="42" viewBox="0 0 127 42" fill="none" xmlns="http://www.w3.org/2000/svg">
<path d="M66.6588 12.1982L64.8883 4.24496L59.9438 10.6487L66.6588 12.1982ZM72.9994 11.7293C72.9994 17.1252 68.6171 21.5 63.2116 21.5C57.8061 21.5 53.4243 17.1252 53.4238 11.7293C53.4238 6.33392 57.8057 1.95996 63.2116 1.95996C63.7423 1.95996 64.2629 2.00382 64.7712 2.08452L63.937 3.16518C63.7046 3.14588 63.4708 3.1336 63.2335 3.1336C58.6824 3.1336 54.9926 6.73434 54.9926 11.1754C54.9926 15.616 58.682 19.2168 63.2335 19.2168C67.786 19.2163 71.4758 15.616 71.4758 11.1754C71.4758 7.75798 69.2903 4.84099 66.2093 3.67612L65.9119 2.33933C70.0039 3.5099 72.9994 7.26941 72.9994 11.7293Z" fill="#9F9F9F"/>
<path d="M68.6358 30.5C65.9288 30.5 63.7839 32.6659 63.7839 35.3748C63.7839 38.1806 65.9343 40.2266 68.6358 40.2266C71.3391 40.2266 73.4876 38.0625 73.4876 35.3748C73.4877 32.4819 71.4169 30.5 68.6358 30.5ZM42.9574 30.5229C41.3508 30.5229 40.2797 31.4548 40.2797 32.7886C40.2798 33.737 40.8546 34.5179 41.2639 34.9857C40.2871 35.5185 39.433 36.3058 39.433 37.6634C39.433 39.1116 40.6175 40.2266 42.3166 40.2266C43.3392 40.2266 44.2006 39.8724 44.9028 39.1281L45.658 40.0207H47.7178C47.7178 40.0207 46.1514 38.2392 45.9098 37.938C46.134 37.6744 47.4431 35.6036 47.4431 35.6036H45.7953L44.9943 36.8395L43.5067 35.1917C44.727 34.5509 45.4978 33.6482 45.4978 32.6742C45.4978 31.3706 44.38 30.5229 42.9574 30.5229ZM58.0166 30.5229C55.392 30.5229 53.1876 32.5369 53.1876 35.3519C53.1876 38.1824 55.1814 40.1809 58.0166 40.1809C59.5911 40.1809 60.9039 39.5648 61.7699 38.3729L61.8157 38.3042L60.4654 37.1828L60.4196 37.2743C59.9079 38.2017 59.1069 38.6704 58.0166 38.6704C56.1655 38.6704 54.9727 37.2249 54.9727 35.3519C54.9727 33.4844 56.2964 32.0563 58.0166 32.0563C59.0474 32.0562 59.9784 32.6101 60.4196 33.3837L60.4654 33.4752L61.8386 32.3767L61.7699 32.308C60.848 31.1747 59.4749 30.5229 58.0166 30.5229ZM12.0839 30.5687L7.55245 39.9978H9.33758L10.2301 38.0296H13.8004L14.6472 39.9978H16.5925L12.0839 30.5687ZM24.6256 30.5687V39.9978H26.3192V34.5737L32.4527 40.2266V30.7289H30.7591V36.2444L24.6256 30.5687ZM77.6758 30.5687L75.3643 39.9978H77.0808L78.2022 35.0086L81.063 40.2266L83.9238 34.9857L85.0681 39.9978H86.899L84.473 30.5687L81.1088 36.8395L77.6758 30.5687ZM101.226 30.5687L96.7172 39.9978H98.4794L99.372 38.0296H102.942L103.812 39.9978H105.734L101.226 30.5687ZM108 30.5687V39.9978H109.694V34.5509L115.827 40.2266V30.7289H114.134V36.2444L108 30.5687ZM0 30.7289V39.9978H2.60903C4.98279 39.9978 6.24794 39.0503 6.24794 37.343C6.24795 36.2106 5.53847 35.416 4.46281 35.0544C5.18784 34.7303 5.72156 34.0162 5.72156 33.1319C5.72156 31.5271 4.45 30.7289 2.21996 30.7289H0ZM18.8354 30.7289V39.9978H20.5976V30.7289H18.8354ZM89.8971 30.7289V39.9978H91.6364V36.542C91.7554 36.5575 91.9266 36.5877 92.0713 36.5877C94.3114 36.5877 95.8933 35.5862 95.8933 33.6583C95.8933 31.81 94.575 30.7289 92.0713 30.7289H89.8971ZM117.91 30.7289L121.297 36.1071V39.9978H123.036V36.1071L126.423 30.7289H124.501L122.167 34.4593L119.901 30.7289H117.91ZM42.9345 31.7816C43.5433 31.7816 43.9644 32.1698 43.9644 32.7428C43.9644 33.3818 43.3236 33.8789 42.6828 34.2076C42.3551 33.8881 41.8818 33.3791 41.8818 32.8344C41.8818 32.1844 42.3267 31.7816 42.9345 31.7816ZM68.6358 32.0334C70.495 32.0334 71.6796 33.3608 71.6796 35.3748C71.6796 37.1535 70.4447 38.6933 68.6358 38.6933C66.825 38.6932 65.5919 37.2588 65.5919 35.3748C65.5919 33.6363 66.8241 32.0334 68.6358 32.0334ZM1.73935 32.1249H2.03687C3.32399 32.1249 3.95932 32.4783 3.95932 33.4066C3.95932 34.3522 3.31759 34.6653 2.10553 34.6653H1.73935V32.1249ZM91.6364 32.1249H92.0713C93.4948 32.1212 94.1081 32.676 94.1081 33.6583C94.1081 34.6259 93.4591 35.1459 92.0713 35.1459C91.8708 35.1395 91.7509 35.1404 91.6364 35.123V32.1249ZM12.0839 33.8643L13.1825 36.542H10.8938L12.0839 33.8643ZM101.226 33.8643L102.324 36.542H100.059L101.226 33.8643ZM42.1335 35.9927L43.9415 38.0982C43.6843 38.4525 43.1167 38.8077 42.4997 38.8077C41.6401 38.8077 41.1036 38.2685 41.1036 37.5032C41.1036 36.8514 41.5861 36.2792 42.0878 36.0156C42.1015 36.0092 42.1225 35.9991 42.1335 35.9927ZM1.73935 36.0614H2.51748C3.73778 36.0586 4.43993 36.3799 4.43993 37.3659C4.43993 38.2264 3.80186 38.5944 2.51748 38.6017H1.73935V36.0614Z" fill="#9F9F9F"/>
</svg>
