<svg width="57" height="57" viewBox="0 0 57 57" fill="none" xmlns="http://www.w3.org/2000/svg">
<path fill-rule="evenodd" clip-rule="evenodd" d="M31.0611 16.5938C31.0611 15.3036 30.0154 14.2578 28.7252 14.2578C27.435 14.2578 26.3893 15.3036 26.3893 16.5938V30.6101C26.3893 31.23 26.6353 31.824 27.0733 32.262L34.0815 39.2702C34.9938 40.1826 36.4729 40.1826 37.3853 39.2702C38.2977 38.3578 38.2977 36.8787 37.3853 35.9668L31.0611 29.6426V16.5938ZM45.2427 44.7917C40.8309 49.2042 34.9637 51.6344 28.7254 51.6344C22.4857 51.6344 16.6193 49.2043 12.2081 44.7917C7.7956 40.3799 5.36536 34.5137 5.36536 28.2744C5.36536 22.0355 7.7955 16.1693 12.2081 11.7571C16.6199 7.34458 22.4861 4.91435 28.7254 4.91435C34.9643 4.91435 40.8315 7.34448 45.2427 11.7571C49.6552 16.1697 52.0854 22.0361 52.0854 28.2744C52.0854 34.5141 49.6553 40.3805 45.2427 44.7917ZM28.7254 0.241699C21.237 0.241699 14.1985 3.158 8.90429 8.45358C3.60942 13.7473 0.693115 20.787 0.693115 28.2747C0.693115 35.7624 3.60942 42.8016 8.90429 48.0958C14.1988 53.3915 21.2377 56.3077 28.7254 56.3077C36.2126 56.3077 43.2513 53.3914 48.5465 48.0958C53.8422 42.8021 56.7584 35.7624 56.7584 28.2747C56.7584 20.787 53.8421 13.7478 48.5472 8.45358C43.2519 3.1579 36.2128 0.241699 28.7261 0.241699L28.7254 0.241699Z" fill="#1A2429"/>
</svg>
