<svg width="157" height="38" viewBox="0 0 157 38" fill="none" xmlns="http://www.w3.org/2000/svg">
<path d="M26.993 24.9216L30.6861 28.0871C29.9686 29.0789 29.1244 29.9442 28.1537 30.6828C26.9508 31.6324 25.6002 32.3921 24.1652 32.9408C22.5825 33.5528 20.8943 33.8693 19.1849 33.8482C16.5893 33.8904 14.0358 33.2362 11.7989 31.9489C9.68858 30.725 7.95814 28.9523 6.77637 26.7998C5.5313 24.5418 4.91931 21.9883 4.96152 19.3927C4.94041 17.4512 5.29916 15.5308 5.99556 13.716C6.67086 11.9644 7.6838 10.3817 8.97108 9.0311C10.2373 7.68051 11.7778 6.60426 13.4871 5.86565C15.3442 5.08484 17.3279 4.68388 19.3326 4.70499C21.7384 4.62057 24.1019 5.16925 26.2122 6.30881C27.9427 7.32176 29.4621 8.67235 30.6439 10.2973L26.9086 13.5893C26.0856 12.3654 25.0305 11.3313 23.8065 10.5083C22.4559 9.68529 20.8943 9.28433 19.3326 9.34764C17.6444 9.30544 15.9984 9.7697 14.6056 10.6982C13.2761 11.6268 12.2209 12.8929 11.5456 14.3702C10.8281 15.9107 10.4483 17.5989 10.4694 19.3083C10.4483 20.9754 10.8281 22.6214 11.5456 24.1197C12.2209 25.5125 13.2339 26.7154 14.5212 27.5806C15.8718 28.4458 17.4334 28.889 19.0372 28.8468C20.3878 28.9101 21.7384 28.6569 22.9835 28.1504C23.8698 27.7494 24.6928 27.2008 25.3892 26.5044L26.993 24.9216Z" fill="#708080"/>
<path d="M32.1209 23.3601C32.0998 21.5452 32.5641 19.7515 33.4504 18.1688C34.3367 16.6071 35.624 15.2988 37.1856 14.3913C40.6254 12.5343 44.7827 12.5343 48.2225 14.3913C49.7841 15.2988 51.0503 16.6071 51.9366 18.1688C54.7011 23.339 52.7385 29.7754 47.5683 32.5399C42.5669 35.22 36.3204 33.4684 33.4293 28.5936C32.543 27.0109 32.0787 25.2172 32.0998 23.4023L32.1209 23.3601ZM42.6513 29.5855C43.7698 29.6277 44.8671 29.29 45.7534 28.6358C46.5765 28.0239 47.2095 27.2008 47.6105 26.2512C48.0115 25.3649 48.2225 24.3941 48.2225 23.4023C48.2225 22.4316 47.9904 21.4608 47.6105 20.5534C47.2095 19.6038 46.5554 18.7808 45.7534 18.1688C43.8753 16.9026 41.4062 16.9026 39.5281 18.1688C38.7262 18.7808 38.0931 19.5827 37.7132 20.5112C37.3122 21.3975 37.1012 22.3683 37.0801 23.3601C37.1012 24.3519 37.3122 25.3438 37.7132 26.2301C38.1142 27.1797 38.7684 28.0028 39.5703 28.6147C40.4777 29.2689 41.5751 29.6066 42.6724 29.5644" fill="#708080"/>
<path d="M54.2578 5.38037H59.1959V10.5717H54.2578V5.38037ZM54.2578 13.6105H59.1959V33.1519H54.2578V13.6105Z" fill="#708080"/>
<path d="M61.1377 33.1518V13.6527H65.8648L65.9914 15.8685C66.6456 15.1932 67.3842 14.6234 68.1861 14.138C69.3257 13.4838 70.6129 13.1673 71.9213 13.2306C74.0105 13.104 76.0575 13.8848 77.5136 15.4042C78.8853 17.0502 79.5817 19.1605 79.4551 21.2919V33.1307H74.4959V21.313C74.5592 20.2579 74.1793 19.2027 73.4618 18.443C73.1242 18.1054 72.7021 17.831 72.2379 17.6622C71.7736 17.4934 71.2882 17.409 70.8029 17.4301C69.5156 17.3879 68.2705 17.9366 67.4053 18.9073C66.519 19.9202 66.0336 21.2286 66.0758 22.5792V33.1518H61.1377Z" fill="#708080"/>
<path d="M140.422 18.2742L149.137 5.40141H140.886L136.37 12.5975L131.727 5.40141H122.59L123.012 5.97119L122.716 5.84458C120.564 5.04266 118.263 4.6417 115.963 4.66281C113.304 4.6206 110.688 5.27479 108.366 6.60428C106.72 7.55392 105.285 8.8412 104.188 10.3817C102.964 8.8623 101.402 7.68053 99.6296 6.92083C97.1816 5.90788 94.5648 5.40141 91.927 5.44362H81.1855V33.1729H91.8848C94.5437 33.2151 97.1605 32.7087 99.5873 31.6535C101.36 30.8938 102.922 29.7121 104.146 28.2348C105.285 29.7965 106.741 31.0837 108.408 32.0123C110.709 33.2785 113.325 33.9115 115.963 33.8693C118.453 33.9115 120.922 33.384 123.18 32.3077L122.59 33.1729H130.714L136.138 24.6473L141.73 33.1729H151.015L140.422 18.2742ZM97.266 24.6051C95.7466 26.0401 93.6996 26.7998 91.6315 26.6732H88.6138V11.8589H91.6526C93.784 11.669 95.9154 12.4287 97.456 13.927C98.7432 15.4042 99.3974 17.3246 99.3341 19.2872C99.3763 21.2497 98.6377 23.1701 97.266 24.6051ZM127 26.6099L123.476 23.3389C122.653 24.3941 121.64 25.3015 120.5 26.019C119.276 26.6521 117.884 26.9476 116.512 26.8842C115.14 26.9265 113.79 26.5677 112.608 25.8924C111.511 25.2382 110.603 24.2886 110.033 23.1279C109.421 21.8828 109.105 20.5111 109.126 19.1395C109.105 17.7889 109.4 16.4383 109.991 15.2354C110.561 14.0958 111.447 13.1462 112.523 12.4709C113.747 11.7534 115.14 11.3947 116.554 11.4369C117.863 11.4158 119.15 11.7323 120.289 12.3865C121.387 13.0407 122.357 13.9059 123.117 14.94L126.81 11.268L132.191 18.9706L127 26.6099Z" fill="#9F9F9F"/>
</svg>
