<svg width="60" height="41" viewBox="0 0 60 41" fill="none" xmlns="http://www.w3.org/2000/svg">
<path d="M47.4666 19.4635C50.1481 17.5729 51.8976 14.4493 51.8976 10.937C51.8976 5.17641 47.212 0.490826 41.4514 0.490826C35.6908 0.490826 31.0052 5.17641 31.0052 10.937C31.0052 14.4698 32.7747 17.5984 35.4647 19.4879C34.1871 19.9507 32.9502 20.5635 31.7888 21.315L31.7883 21.3153C31.0331 21.8078 30.8202 22.8249 31.3124 23.5799L31.3124 23.5799C31.8056 24.3362 32.8223 24.5468 33.5899 24.0567L33.5915 24.0556C35.9412 22.518 38.6676 21.6917 41.4663 21.6917C49.4553 21.6917 55.97 28.2895 55.97 36.4156C55.97 37.1824 55.8979 37.9803 55.7522 38.8677C55.6046 39.7539 56.2107 40.606 57.0976 40.754L57.1117 40.7563H57.126C57.161 40.7563 57.1939 40.7592 57.2352 40.763L57.2376 40.7632C57.2767 40.7668 57.3238 40.7711 57.3757 40.7711C58.1656 40.7711 58.8517 40.1961 58.9986 39.3967L58.9991 39.3938C59.1763 38.3296 59.2658 37.3509 59.2658 36.4009C59.2658 28.6007 54.331 21.9629 47.4666 19.4635ZM41.4514 18.1021C37.4963 18.1021 34.2863 14.8921 34.2863 10.937C34.2863 6.98193 37.4963 3.77187 41.4514 3.77187C45.4065 3.77187 48.6165 6.98193 48.6165 10.937C48.6165 14.8921 45.4065 18.1021 41.4514 18.1021Z" fill="#1A2429" stroke="#1A2429" stroke-width="0.345496"/>
<path d="M18.1671 21.6929L18.1678 21.7063H17.985C9.99585 21.7063 3.48122 28.3194 3.48122 36.4302C3.48122 37.1824 3.55338 37.9944 3.69906 38.8821C3.84665 39.7683 3.24065 40.6205 2.35377 40.7685C2.35372 40.7685 2.35367 40.7685 2.35363 40.7685L2.32521 40.5981C2.23725 40.6129 2.1488 40.6129 2.07558 40.6129C1.35616 40.6129 0.739966 40.0989 0.622525 39.38L18.1671 21.6929ZM18.1671 21.6929C20.9158 21.7273 23.5741 22.5377 25.8579 24.055L25.8591 24.0558C26.6128 24.5473 27.63 24.351 28.1375 23.5806L28.138 23.5799C28.6286 22.8275 28.4346 21.8092 27.6618 21.3151C26.4993 20.5492 25.2742 19.9478 23.987 19.487C26.6761 17.5975 28.4452 14.4693 28.4452 10.937C28.4452 5.17641 23.7596 0.490826 17.999 0.490826C12.2384 0.490826 7.55284 5.17641 7.55284 10.937C7.55284 14.47 9.3224 17.5846 11.9985 19.4729C5.12684 21.967 0.185406 28.6095 0.185406 36.4155C0.185406 37.3655 0.274402 38.344 0.452096 39.4082L18.1671 21.6929ZM10.8337 10.9375C10.8337 6.98241 14.0438 3.77235 17.9989 3.77235C21.9539 3.77235 25.164 6.98241 25.164 10.9375C25.164 14.8925 21.9539 18.1026 17.9989 18.1026C14.0438 18.1026 10.8337 14.8925 10.8337 10.9375Z" fill="#1A2429" stroke="#1A2429" stroke-width="0.345496"/>
</svg>
