<svg width="61" height="61" viewBox="0 0 61 61" fill="none" xmlns="http://www.w3.org/2000/svg">
<path d="M57.7956 23.9624L55.5776 21.3643C54.8806 20.5405 54.5005 19.5902 54.4373 18.5762L54.1204 15.0915C53.7403 10.276 50.002 6.53716 45.2497 6.22079L41.8282 5.96753C40.8143 5.90432 39.8004 5.46056 39.0401 4.8272L36.4421 2.60923C32.7669 -0.495721 27.5076 -0.495721 23.8326 2.60923L21.2346 4.8272C20.4107 5.52423 19.4604 5.90433 18.4464 5.96753L14.8982 6.15714C10.0826 6.53726 6.34378 10.2756 5.96371 15.0279L5.71045 18.4493C5.64724 19.4632 5.20348 20.4772 4.57012 21.2375L2.35215 23.8355C-0.752801 27.5106 -0.752801 32.7699 2.35215 36.4449L4.57012 39.043C5.26715 39.8668 5.64725 40.8172 5.71045 41.8311L5.96371 45.4426C6.34383 50.2582 10.0821 53.997 14.8345 54.3134L18.2559 54.5666C19.2698 54.6298 20.2838 55.0736 21.044 55.707L23.6421 57.9249C25.4794 59.509 27.6974 60.2693 29.9152 60.2693C32.1332 60.2693 34.4143 59.5091 36.1884 57.9249L38.7864 55.707C39.6103 55.0099 40.5606 54.6298 41.5745 54.5666L44.996 54.3134C49.8115 53.9333 53.5504 50.1949 53.9304 45.4426L54.1837 42.0212C54.2469 41.0073 54.6907 39.9933 55.324 39.2331L57.542 36.635C60.9003 32.8967 60.9003 27.5742 57.7957 23.9622L57.7956 23.9624ZM54.1836 33.4037L51.9657 36.0018C50.6348 37.5859 49.8114 39.4869 49.6846 41.5779L49.4313 44.9994C49.2412 47.4073 47.3403 49.3079 44.9322 49.4984L41.5108 49.7517C39.4829 49.9418 37.5187 50.702 35.9346 52.0328L33.2102 54.3772C31.3729 55.9613 28.648 55.9613 26.8105 54.3772L24.2125 52.1592C22.6284 50.8283 20.7274 50.0049 18.6364 49.8781L15.2149 49.6248C12.807 49.4348 10.9064 47.5338 10.7158 45.1258L10.4626 41.7043C10.2725 39.6764 9.5123 37.7123 8.18148 36.1282L5.90037 33.4037C4.31627 31.5664 4.31627 28.8415 5.90037 27.0041L8.11834 24.4061C9.44921 22.8219 10.2726 20.9209 10.3994 18.8299L10.6527 15.4085C10.8428 13.0005 12.7437 11.0999 15.1518 10.9094L18.5732 10.6561C20.6011 10.4661 22.5653 9.70585 24.1494 8.37502L26.7474 6.15705C27.6977 5.39682 28.7753 4.95302 29.9156 4.95302C31.0559 4.95302 32.1967 5.33314 33.0838 6.15705L35.6819 8.37502C37.266 9.70589 39.167 10.5293 41.258 10.6561L44.6794 10.9094C47.0874 11.0995 48.988 13.0004 49.1785 15.4085L49.4318 18.8299C49.6218 20.8578 50.3821 22.8219 51.7129 24.4061L53.9309 27.0041C55.7677 28.9047 55.7677 31.5663 54.1837 33.4037H54.1836Z" fill="#1A2429"/>
<path d="M31.1183 28.2079H28.9003C27.1894 28.2079 25.859 26.7506 26.0491 25.0397C26.1759 23.5188 27.5699 22.4416 29.0904 22.4416H31.6248C32.575 22.4416 33.3989 23.1387 33.5889 24.0257C33.6521 24.279 33.9058 24.4695 34.1591 24.4695H37.0741C37.391 24.4695 37.7079 24.2162 37.6442 23.8357C37.3273 20.9207 34.983 18.6396 32.0048 18.4495V15.5345C32.0048 15.2176 31.7516 14.9644 31.4347 14.9644H28.5197C28.2028 14.9644 27.9495 15.2176 27.9495 15.5345V18.4495C24.3375 18.9565 21.6131 22.1879 21.9932 25.9899C22.3733 29.6019 25.6052 32.1995 29.2167 32.1995H31.1177C32.8287 32.1995 34.1591 33.6568 33.969 35.3677C33.8421 36.8886 32.4481 37.9657 30.9276 37.9657H28.3933C27.443 37.9657 26.6191 37.2687 26.4291 36.3816C26.3659 36.1284 26.1122 35.9379 25.859 35.9379H22.944C22.6271 35.9379 22.3102 36.1911 22.3738 36.5717C22.6907 39.4867 25.0351 41.7678 28.0132 41.9579V44.8729C28.0132 45.1898 28.2665 45.443 28.5834 45.443H31.4984C31.8153 45.443 32.0685 45.1898 32.0685 44.8729V41.8947C35.1735 41.3878 37.7079 38.9798 38.0249 35.7484C38.4054 31.6931 35.1736 28.208 31.1183 28.208V28.2079Z" fill="#1A2429"/>
</svg>
