<svg width="187" height="38" viewBox="0 0 187 38" fill="none" xmlns="http://www.w3.org/2000/svg">
<path d="M68.3127 1.18579H75.3672L87.3623 22.8841L99.3573 1.18579H106.259V36.8402H100.504V9.5138L89.9855 28.4361H84.5863L74.0683 9.5138V36.8402H68.3127V1.18579Z" fill="#9F9F9F"/>
<path d="M124.824 37.477C122.159 37.477 119.816 36.887 117.795 35.707C115.775 34.527 114.2 32.8929 113.071 30.8046C111.942 28.7161 111.377 26.3222 111.378 23.6228C111.378 20.8894 111.929 18.47 113.033 16.3645C114.137 14.2595 115.669 12.6126 117.63 11.4237C119.591 10.2355 121.845 9.64131 124.392 9.64099C126.921 9.64099 129.099 10.2394 130.924 11.4364C132.749 12.6336 134.154 14.3102 135.139 16.4663C136.123 18.6227 136.616 21.1525 136.616 24.0557V25.6344H117.082C117.439 27.8081 118.318 29.5186 119.718 30.7662C121.119 32.0141 122.889 32.6381 125.028 32.638C126.743 32.638 128.22 32.3833 129.46 31.874C130.699 31.3646 131.862 30.5922 132.949 29.5566L136.005 33.3002C132.965 36.085 129.238 37.4773 124.824 37.477ZM129.027 16.3261C127.821 15.0954 126.242 14.4799 124.29 14.4797C122.388 14.4797 120.796 15.108 119.515 16.3645C118.232 17.6209 117.422 19.3103 117.082 21.4325H131.09C130.92 19.2592 130.232 17.5571 129.027 16.3261Z" fill="#9F9F9F"/>
<path d="M143.594 14.9894H138.297V10.2778H143.594V2.48486H149.146V10.2778H157.194V14.9894H149.146V26.9335C149.146 28.9198 149.486 30.3374 150.165 31.1864C150.844 32.0356 152.007 32.4601 153.654 32.4597C154.384 32.4597 155.003 32.43 155.513 32.3706C156.023 32.3114 156.583 32.2308 157.194 32.1286V36.7891C156.497 36.9909 155.786 37.1441 155.067 37.2477C154.245 37.3687 153.415 37.4283 152.584 37.426C146.591 37.426 143.594 34.1492 143.594 27.5956V14.9894Z" fill="#9F9F9F"/>
<path d="M186.126 36.8403H180.676V33.1221C179.708 34.5145 178.477 35.5883 176.983 36.3436C175.489 37.0989 173.791 37.4767 171.889 37.4772C169.546 37.4772 167.471 36.8786 165.663 35.6815C163.854 34.4845 162.432 32.8377 161.397 30.741C160.361 28.6441 159.843 26.2459 159.843 23.5464C159.843 20.83 160.37 18.4275 161.422 16.3389C162.475 14.2508 163.931 12.6125 165.79 11.4238C167.649 10.2357 169.784 9.64143 172.195 9.64111C174.012 9.64111 175.641 9.99345 177.085 10.6981C178.508 11.3868 179.741 12.4143 180.676 13.6904V10.2779H186.126V36.8403ZM180.574 19.5735C179.979 18.0624 179.041 16.8696 177.76 15.9951C176.477 15.1209 174.996 14.6837 173.316 14.6837C170.938 14.6837 169.045 15.4817 167.636 17.0776C166.227 18.6736 165.522 20.8298 165.523 23.5464C165.523 26.2801 166.202 28.4449 167.56 30.0407C168.918 31.6367 170.76 32.4346 173.086 32.4345C174.801 32.4345 176.329 31.993 177.67 31.1101C179.011 30.2277 179.979 29.0392 180.574 27.5447L180.574 19.5735Z" fill="#9F9F9F"/>
<path d="M6.09816 24.7304C6.09816 26.8861 6.57134 28.5412 7.18979 29.5425C8.00066 30.8541 9.21007 31.4097 10.4431 31.4097C12.0334 31.4097 13.4882 31.015 16.2919 27.1374C18.5379 24.0294 21.1845 19.6669 22.9653 16.9319L25.981 12.2984C28.0759 9.08051 30.5006 5.50327 33.2807 3.07853C35.5504 1.09948 37.9987 0 40.4627 0C44.5995 0 48.5399 2.39724 51.5556 6.89332C54.856 11.8174 56.4581 18.0196 56.4581 24.4202C56.4581 28.2251 55.7081 31.0209 54.4319 33.2297C53.1989 35.3658 50.7958 37.5 46.7533 37.5V31.4097C50.2146 31.4097 51.0785 28.2291 51.0785 24.589C51.0785 19.4018 49.8691 13.6453 47.2048 9.53206C45.3141 6.61453 42.8639 4.83179 40.1682 4.83179C37.2526 4.83179 34.9064 7.03075 32.2696 10.9516C30.8678 13.0347 29.4287 15.5733 27.8128 18.4378L26.034 21.589C22.4607 27.9247 21.5556 29.3678 19.769 31.7493C16.6374 35.9195 13.9633 37.5 10.4431 37.5C6.267 37.5 3.6263 35.6918 1.99083 32.9666C0.655752 30.7461 0 27.8325 0 24.5124L6.09816 24.7304Z" fill="#708080"/>
<path d="M4.80835 7.32328C7.60416 3.01373 11.6388 0 16.2665 0C18.9464 0 21.6107 0.7932 24.3928 3.0648C27.436 5.54844 30.6794 9.6381 34.7259 16.3783L36.1768 18.7971C39.6794 24.6322 41.6722 27.6342 42.8384 29.0497C44.3384 30.8678 45.3888 31.4097 46.7534 31.4097C50.2148 31.4097 51.0786 28.2291 51.0786 24.589L56.4582 24.4202C56.4582 28.2251 55.7082 31.0209 54.432 33.2297C53.1991 35.3658 50.7959 37.5 46.7534 37.5C44.2403 37.5 42.0138 36.9542 39.5518 34.6315C37.6591 32.8488 35.4464 29.6819 33.7442 26.8351L28.6807 18.377C26.1402 14.1322 23.8097 10.9673 22.4608 9.53402C21.0099 7.9928 19.1447 6.13153 16.1683 6.13153C13.7593 6.13153 11.7135 7.82199 10.0014 10.4077L4.80835 7.32328Z" fill="url(#paint0_linear_2081_3654)"/>
<path d="M16.1682 6.13153C13.7592 6.13153 11.7133 7.82199 10.0013 10.4077C7.58048 14.0615 6.09816 19.5039 6.09816 24.7304C6.09816 26.8861 6.57134 28.5412 7.18979 29.5425L1.99083 32.9666C0.655752 30.7461 0 27.8325 0 24.5124C0 18.4751 1.65706 12.1826 4.80824 7.32328C7.60405 3.01373 11.6387 0 16.2663 0L16.1682 6.13153Z" fill="url(#paint1_linear_2081_3654)"/>
<defs>
<linearGradient id="paint0_linear_2081_3654" x1="11.9765" y1="22.9712" x2="50.8509" y2="24.9346" gradientUnits="userSpaceOnUse">
<stop stop-color="#708080"/>
<stop offset="0.4" stop-color="#708080"/>
<stop offset="0.83" stop-color="#708080"/>
<stop offset="1" stop-color="#708080"/>
</linearGradient>
<linearGradient id="paint1_linear_2081_3654" x1="8.83507" y1="27.2906" x2="8.83507" y2="12.9581" gradientUnits="userSpaceOnUse">
<stop stop-color="#708080"/>
<stop offset="1" stop-color="#708080"/>
</linearGradient>
</defs>
</svg>
