<svg width="146" height="45" viewBox="0 0 146 45" fill="none" xmlns="http://www.w3.org/2000/svg">
<g clip-path="url(#clip0_2081_3608)">
<path d="M15.4688 0H19.9088V0.83625H19.0725C18.9263 0.83625 18.6713 1.005 18.3038 1.33875C17.9363 1.6725 17.7525 1.935 17.7525 2.1075V14.8575C17.7525 15.0337 17.9363 15.2887 18.3038 15.6262C18.6713 15.9637 18.9263 16.1325 19.0725 16.1325H19.9088V16.965H13.3575V16.125H14.1938C14.34 16.125 14.5913 15.9562 14.9438 15.6187C15.2963 15.2812 15.4725 15.0263 15.4725 14.85V2.505L9.31501 17.2688L3.165 2.25V14.8537C3.165 15.03 3.34125 15.285 3.69001 15.6225C4.03876 15.96 4.29376 16.1288 4.44001 16.1288H5.27251V16.9612H0V16.125H0.836251C1.0125 16.125 1.275 15.9562 1.6275 15.6187C1.98 15.2812 2.1525 15.0263 2.1525 14.85V2.1075C2.1525 1.935 1.97625 1.67625 1.6275 1.33875C1.27875 1.00125 1.0125 0.83625 0.836251 0.83625H0V0H4.92001L10.02 12.7013H10.1513L15.4688 0ZM26.0175 15.2475C26.7658 15.2921 27.5116 15.1258 28.17 14.7675C28.7163 14.3934 29.1672 13.8963 29.4863 13.3163H30.1913C29.878 14.4056 29.2784 15.391 28.455 16.17C27.5518 16.9191 26.3977 17.2971 25.2263 17.2275C24.5298 17.2528 23.837 17.1146 23.2034 16.8242C22.5699 16.5338 22.013 16.0991 21.5775 15.555C20.6639 14.4262 20.1814 13.0093 20.2163 11.5575C20.1755 10.7805 20.2902 10.0032 20.5536 9.2711C20.8169 8.53898 21.2237 7.86674 21.75 7.29375C22.2209 6.78741 22.7923 6.38507 23.4278 6.11255C24.0633 5.84002 24.7487 5.70334 25.44 5.71125C26.1919 5.69401 26.9394 5.82923 27.6375 6.10875C28.2712 6.37876 28.8516 6.75974 29.3513 7.23375L27.75 9.75L27.09 9.79125C27.2399 9.0424 27.1947 8.2676 26.9588 7.54125C26.8187 7.20323 26.5693 6.92198 26.2504 6.7425C25.9315 6.56301 25.5617 6.49567 25.2 6.55125C24.7286 6.52129 24.2575 6.61484 23.8334 6.82267C23.4092 7.03049 23.0465 7.34539 22.7813 7.73625C22.2152 8.67668 21.9399 9.7635 21.99 10.86C21.9583 11.9961 22.3409 13.105 23.0663 13.98C23.4309 14.4 23.8857 14.7322 24.3968 14.9517C24.9078 15.1712 25.4619 15.2723 26.0175 15.2475ZM36.9151 16.9612H30.2775V16.125H31.125C31.3013 16.125 31.5638 15.9562 31.9163 15.6187C32.2688 15.2812 32.4413 15.0263 32.4413 14.85V2.1075C32.4413 1.935 32.2688 1.67625 31.9163 1.33875C31.5638 1.00125 31.29 0.83625 31.125 0.83625H30.2775V0H36.9151V0.83625H36.0788C35.9026 0.83625 35.6401 1.005 35.2876 1.33875C34.9351 1.6725 34.7626 1.935 34.7626 2.1075V9.0525L40.8263 2.28375C40.9426 2.1375 40.8263 1.86 40.5188 1.45125C40.2113 1.0425 39.9601 0.83625 39.8138 0.83625H39.0001V0H45.1501V0.83625H44.3138C43.9007 0.978274 43.5215 1.20426 43.2001 1.5C42.6113 1.95375 42.2626 2.25 42.1426 2.35875L38.0176 6.795L43.9501 14.67C44.2379 15.0055 44.5696 15.3006 44.9363 15.5475C45.2308 15.8183 45.5856 16.015 45.9713 16.1212H47.2013C47.4925 16.0609 47.756 15.9068 47.9513 15.6825C48.2738 15.3863 48.4351 15.1388 48.4351 14.9325V7.99875C48.4351 7.8225 48.2738 7.58625 47.9513 7.29375C47.756 7.0695 47.4925 6.91539 47.2013 6.855H46.5376V6.01875H50.4488V14.94C50.4488 15.1462 50.6176 15.3938 50.9551 15.69C51.1492 15.9027 51.4005 16.055 51.6788 16.1288H53.0438C53.1901 16.1288 53.4188 15.9825 53.7451 15.69C54.0713 15.3975 54.2288 15.1462 54.2288 14.94V7.99875C54.2288 7.8225 54.0676 7.58625 53.7451 7.29375C53.4226 7.00125 53.1901 6.855 53.0438 6.855H52.3388V6.01875H55.8113L56.2501 8.25C56.8463 7.62038 57.4853 7.03273 58.1626 6.49125C58.8504 5.97415 59.6952 5.70934 60.5551 5.74125C60.9589 5.73393 61.36 5.80821 61.7344 5.95964C62.1087 6.11107 62.4487 6.33653 62.7338 6.6225C63.0339 6.92001 63.2689 7.27665 63.4238 7.66979C63.5788 8.06294 63.6503 8.484 63.6338 8.90625V14.94C63.6338 15.1462 63.7951 15.3938 64.1176 15.69C64.4401 15.9863 64.6726 16.1288 64.8188 16.1288H65.5238V16.9612H59.7676V16.125H60.3751C60.666 16.0638 60.9292 15.9099 61.1251 15.6863C61.4476 15.39 61.6088 15.1425 61.6088 14.9363V9.0525C61.6303 8.56024 61.4731 8.07683 61.1663 7.69125C61.0018 7.50861 60.7976 7.36601 60.5695 7.27437C60.3413 7.18273 60.0953 7.14446 59.8501 7.1625C58.9808 7.18898 58.1421 7.48955 57.4538 8.02125C56.6513 8.59125 56.2501 9.0675 56.2501 9.45V14.94C56.2501 15.1462 56.4113 15.3938 56.7338 15.69C56.9292 15.9143 57.1926 16.0684 57.4838 16.1288H58.0988V16.9612H42.3751L36.4763 8.4825L34.7626 10.3275V14.8537C34.7626 15.03 34.9351 15.285 35.2876 15.6225C35.6401 15.96 35.9026 16.1288 36.0788 16.1288H36.9151V16.9612ZM42.8026 36.0863L42.7501 36.0338C43.3088 36.5025 43.8751 36.9713 44.4451 37.44C45.0151 37.9088 45.6226 38.3625 46.2676 38.805H47.2763V39.6825H45.4313C44.6802 39.6952 43.9338 39.5615 43.2338 39.2888C42.4862 38.9541 41.8023 38.4922 41.2126 37.9237C40.5474 38.5936 39.7454 39.1117 38.8613 39.4425C37.8384 39.7982 36.7603 39.9684 35.6776 39.945C34.3014 39.9522 32.9692 39.4606 31.9275 38.5612C31.3885 38.1263 30.9571 37.5728 30.667 36.9438C30.3769 36.3148 30.2359 35.6274 30.255 34.935C30.2439 33.9051 30.5025 32.8903 31.005 31.9913C31.4926 31.1276 32.1759 30.3904 33 29.8387C32.6057 29.3381 32.2733 28.7916 32.01 28.2112C31.7504 27.6011 31.6226 26.943 31.635 26.28C31.6037 25.7633 31.6854 25.246 31.8745 24.7641C32.0636 24.2822 32.3556 23.8474 32.73 23.49C33.5675 22.7927 34.6382 22.4389 35.7263 22.5C36.3532 22.4789 36.9789 22.5677 37.5751 22.7625C37.9661 22.9233 38.3825 23.0135 38.8051 23.0287C38.9675 23.0328 39.1299 23.0177 39.2888 22.9838C39.4218 22.9401 39.5323 22.8458 39.5963 22.7213H40.3463V26.7188H39.5963C39.4799 25.8933 39.0826 25.1331 38.4713 24.5663C38.1306 24.1593 37.7033 23.8337 37.2206 23.6131C36.7379 23.3925 36.212 23.2825 35.6813 23.2912C34.9106 23.2489 34.1488 23.4741 33.525 23.9288C33.2633 24.1425 33.0554 24.4147 32.918 24.7234C32.7805 25.0321 32.7175 25.3687 32.7338 25.7063C32.7294 26.3674 32.9638 27.0078 33.3938 27.51C33.867 28.0617 34.472 28.4848 35.1525 28.74C36.2351 29.915 37.4063 31.0938 38.6663 32.2763C39.9263 33.4588 41.1276 34.565 42.2701 35.595C42.5828 35.0936 42.8132 34.5455 42.9526 33.9713C43.09 33.3559 43.1566 32.7268 43.1513 32.0963C43.1666 31.7577 43.1096 31.4197 42.9841 31.1048C42.8587 30.7899 42.6677 30.5054 42.4238 30.27C41.8868 29.7963 41.1851 29.5525 40.4701 29.5912V28.74H46.5001V29.5312H45.8438C45.6976 29.5312 45.4088 29.7787 44.9851 30.2812C44.6692 30.5769 44.4475 30.9591 44.3476 31.38V31.425C44.3185 32.269 44.1708 33.1047 43.9088 33.9075C43.6568 34.685 43.2834 35.4178 42.8026 36.0788V36.0863ZM37.0463 38.6363C37.7397 38.6456 38.4301 38.5417 39.0901 38.3287C39.6755 38.1323 40.2298 37.8533 40.7363 37.5L40.6051 37.4138C39.3551 36.2988 38.1251 35.1562 36.9151 33.9862C35.7051 32.8162 34.5326 31.585 33.3975 30.2925C32.9785 30.7315 32.6374 31.2388 32.3888 31.7925C32.1272 32.4632 32.0072 33.1807 32.0363 33.9C32.0532 34.5289 32.2054 35.1468 32.4823 35.7117C32.7592 36.2765 33.1545 36.7752 33.6413 37.1738C34.5475 38.0773 35.7669 38.5971 37.0463 38.625V38.6363ZM49.2188 3.34125H49.1738C48.8054 3.34457 48.4507 3.20161 48.1876 2.94375C48.0524 2.82194 47.945 2.67252 47.8725 2.50561C47.8 2.3387 47.7643 2.15818 47.7676 1.97625V1.935C47.7569 1.74218 47.789 1.54939 47.8616 1.37044C47.9342 1.1915 48.0455 1.03084 48.1876 0.9C48.4775 0.659736 48.8423 0.528253 49.2188 0.528253C49.5954 0.528253 49.9601 0.659736 50.2501 0.9C50.3921 1.03084 50.5034 1.1915 50.576 1.37044C50.6487 1.54939 50.6808 1.74218 50.6701 1.935H50.6251C50.6551 1.935 50.6701 1.935 50.6701 1.97625C50.6734 2.15818 50.6376 2.3387 50.5651 2.50561C50.4927 2.67252 50.3852 2.82194 50.2501 2.94375C50.0001 3.19604 49.6603 3.33898 49.3051 3.34125H49.2188ZM60.3751 38.5388C61.5809 38.6083 62.7785 38.3017 63.8026 37.6613C64.6893 36.9937 65.3977 36.1179 65.8651 35.1112H66.7501C66.2647 36.5387 65.3604 37.7867 64.1551 38.6925C62.9155 39.5799 61.4189 40.0357 59.8951 39.99C58.7846 40.0298 57.6798 39.8138 56.6661 39.3587C55.6524 38.9035 54.7569 38.2214 54.0488 37.365C52.5806 35.6134 51.7995 33.3875 51.8513 31.1025C51.7921 28.8791 52.5066 26.7041 53.8726 24.9487C54.5355 24.1138 55.3868 23.4478 56.3567 23.0052C57.3266 22.5627 58.3875 22.3561 59.4526 22.4025C60.2464 22.3844 61.0369 22.5115 61.7851 22.7775C62.4144 23.0258 63.0849 23.153 63.7613 23.1525C63.9723 23.1628 64.1827 23.1243 64.3763 23.04C64.5396 22.9562 64.6879 22.846 64.8151 22.7138H65.4301V28.695H64.6801C64.5533 27.4881 64.0806 26.3435 63.3188 25.3987C62.912 24.772 62.3504 24.2607 61.6882 23.9145C61.026 23.5683 60.2857 23.3989 59.5388 23.4225C58.9019 23.3886 58.2649 23.4864 57.6675 23.7096C57.07 23.9329 56.525 24.2768 56.0663 24.72C55.0973 25.8864 54.5667 27.3549 54.5663 28.8712V28.785C54.5363 29.1075 54.5138 29.43 54.4988 29.7525C54.4988 30.075 54.4763 30.4088 54.4763 30.7613C54.4763 31.17 54.4763 31.59 54.5213 32.0137C54.5663 32.4375 54.5813 32.8275 54.6076 33.18C54.7245 34.6058 55.3298 35.9475 56.3213 36.9788C56.8496 37.5089 57.4836 37.9217 58.182 38.1905C58.8805 38.4593 59.6277 38.578 60.3751 38.5388ZM74.2501 13.8863C74.2762 14.3439 74.2009 14.8016 74.0298 15.2268C73.8587 15.652 73.5959 16.0343 73.2601 16.3463C72.5597 16.9496 71.6563 17.2645 70.7326 17.2275C70.1294 17.2457 69.5294 17.1331 68.9738 16.8975C68.5356 16.6839 68.0551 16.5712 67.5676 16.5675C67.4001 16.5513 67.2318 16.5894 67.0876 16.6763L66.7351 16.9612H66.2251V13.095H66.8851C67.0076 13.8485 67.3691 14.5427 67.9163 15.075C68.2641 15.4823 68.7002 15.8048 69.1915 16.018C69.6828 16.2312 70.2163 16.3293 70.7514 16.305C71.3011 16.3336 71.8482 16.2117 72.3339 15.9525C72.521 15.8333 72.6726 15.666 72.7729 15.4681C72.8732 15.2701 72.9184 15.0489 72.9039 14.8275C72.9239 14.5636 72.8712 14.2993 72.7516 14.0633C72.6319 13.8272 72.4498 13.6285 72.2251 13.4887C71.7807 13.2155 71.3184 12.9724 70.8414 12.7613C70.4289 12.5888 70.0576 12.4275 69.7164 12.2813C69.3751 12.135 68.9889 11.9737 68.5501 11.7975C67.9292 11.5106 67.3641 11.1158 66.8813 10.6313C66.6561 10.3863 66.4818 10.0991 66.3685 9.78621C66.2552 9.47335 66.2052 9.1411 66.2213 8.80875C66.1939 8.392 66.2587 7.97433 66.411 7.58544C66.5633 7.19656 66.7994 6.84602 67.1026 6.55875C67.6664 6.15904 68.3206 5.9056 69.0066 5.82116C69.6925 5.73673 70.3887 5.82395 71.0326 6.075C71.4091 6.26226 71.8234 6.36102 72.2439 6.36375C72.3722 6.36793 72.5 6.34492 72.6189 6.29625C72.7275 6.24798 72.8143 6.16113 72.8626 6.0525H73.4326V9.4275H72.7726C72.6659 8.76089 72.3509 8.14519 71.8726 7.66875C71.5789 7.30961 71.206 7.02346 70.783 6.83282C70.3601 6.64217 69.8987 6.5522 69.4351 6.57C68.9267 6.52841 68.4202 6.66934 68.0064 6.9675C67.858 7.08968 67.7394 7.24398 67.6595 7.41874C67.5796 7.5935 67.5405 7.78414 67.5451 7.97625C67.5315 8.17829 67.5687 8.38052 67.6532 8.56455C67.7376 8.74858 67.8668 8.90858 68.0289 9.03C68.4444 9.31864 68.8849 9.56963 69.3451 9.78C69.7576 9.9525 70.1439 10.1138 70.5114 10.26L71.7189 10.7438C72.3491 11.0086 72.9289 11.3803 73.4326 11.8425C73.7106 12.1007 73.9293 12.4161 74.0737 12.767C74.2181 13.1179 74.2846 13.4959 74.2689 13.875L74.2501 13.8863ZM77.1264 29.97C77.6853 30.5156 78.1216 31.1741 78.4061 31.9015C78.6906 32.629 78.8168 33.4087 78.7764 34.1887C78.8162 34.9721 78.6898 35.755 78.4054 36.486C78.121 37.217 77.6851 37.8795 77.1264 38.43C76.1168 39.4328 74.7505 39.9938 73.3276 39.99C71.889 40.0006 70.5051 39.4395 69.4801 38.43C68.922 37.8792 68.4868 37.2165 68.2031 36.4856C67.9194 35.7546 67.7935 34.9718 67.8339 34.1887C67.7917 33.444 67.903 32.6985 68.1607 31.9984C68.4184 31.2984 68.8172 30.6587 69.3322 30.1191C69.8473 29.5794 70.4676 29.1513 71.1549 28.8612C71.8422 28.571 72.5817 28.4251 73.3276 28.4325C74.7529 28.4222 76.1248 28.9747 77.1451 29.97H77.1264ZM76.5976 36V36.0863C76.6276 35.7638 76.6464 35.4412 76.6614 35.1187C76.6764 34.7962 76.6839 34.4738 76.6839 34.1513C76.6839 33.8288 76.6839 33.5175 76.6614 33.21C76.6389 32.9025 76.6276 32.6137 76.5976 32.3512C76.5293 31.549 76.1969 30.792 75.6526 30.1988C75.3425 29.9166 74.9779 29.7008 74.5813 29.5648C74.1846 29.4287 73.7644 29.3752 73.3464 29.4075C72.9371 29.3785 72.5263 29.4338 72.1393 29.5699C71.7523 29.706 71.3974 29.92 71.0964 30.1988C70.558 30.7781 70.2258 31.5189 70.1514 32.3062V32.25C70.0931 32.5545 70.0567 32.8628 70.0426 33.1725C70.0426 33.495 70.0201 33.8175 70.0201 34.1362C70.0201 34.455 70.0201 34.7737 70.0426 35.0812C70.0557 35.37 70.092 35.6571 70.1514 35.94C70.2383 36.724 70.5688 37.4611 71.0964 38.0475C71.3908 38.3383 71.7436 38.5632 72.1315 38.7074C72.5194 38.8516 72.9335 38.9117 73.3464 38.8838C73.77 38.9209 74.1968 38.8676 74.5982 38.7273C74.9997 38.587 75.3668 38.363 75.6751 38.07C76.1887 37.4917 76.511 36.7686 76.5976 36ZM80.2014 17.25C79.508 17.2632 78.8208 17.1176 78.1923 16.8245C77.5638 16.5314 77.0106 16.0984 76.5751 15.5588C75.6249 14.4361 75.1169 13.0054 75.1464 11.535C75.101 10.0275 75.6183 8.55701 76.5976 7.41C77.0323 6.8794 77.5837 6.45643 78.2089 6.17412C78.834 5.8918 79.5159 5.75778 80.2014 5.7825C80.7334 5.75284 81.2656 5.83795 81.7619 6.03206C82.2582 6.22617 82.7069 6.52473 83.0776 6.9075C83.766 7.64385 84.1655 8.60393 84.2026 9.61125L84.2476 10.4025L76.9501 10.9875C76.9649 12.0408 77.3349 13.0582 78.0001 13.875C78.3344 14.3239 78.7731 14.6846 79.2782 14.9257C79.7833 15.1668 80.3396 15.2811 80.8989 15.2587C81.6542 15.3012 82.4066 15.1352 83.0739 14.7787C83.6173 14.4245 84.0634 13.9397 84.3714 13.3688H85.0314C84.7521 14.4524 84.1723 15.4352 83.3589 16.2038C82.4736 16.9319 81.3454 17.2977 80.2014 17.2275V17.25ZM80.1564 6.615C79.6771 6.57499 79.1957 6.66127 78.7601 6.86523C78.3245 7.0692 77.95 7.38373 77.6739 7.7775C77.1789 8.49877 76.8969 9.34476 76.8601 10.2187L82.3539 9.75C82.4479 9.01471 82.3643 8.26759 82.1101 7.57125C81.8701 6.92125 81.2189 6.595 80.1564 6.5925V6.615ZM93.4276 38.865C93.6039 38.865 93.8439 38.7113 94.1514 38.4038C94.4589 38.0963 94.6126 37.8563 94.6126 37.68V31.68C94.6324 31.2118 94.4849 30.7518 94.1964 30.3825C94.0262 30.2021 93.8173 30.0628 93.5853 29.9751C93.3534 29.8874 93.1046 29.8536 92.8576 29.8763C92.0795 29.9021 91.3307 30.1797 90.7239 30.6675C90.0064 31.1975 89.6476 31.6375 89.6476 31.9875V37.6988C89.6476 37.875 89.8014 38.115 90.1089 38.4225C90.4164 38.73 90.6451 38.8838 90.7914 38.8838H91.4514V39.72H85.8264V38.8838H86.4414C86.6176 38.8838 86.8576 38.73 87.1651 38.4225C87.4726 38.115 87.6264 37.875 87.6264 37.6988V31.6988C87.6505 31.2125 87.4943 30.7344 87.1876 30.3563C87.0189 30.1793 86.8129 30.0421 86.5846 29.9546C86.3563 29.867 86.1114 29.8313 85.8676 29.85C85.0692 29.8762 84.3029 30.1708 83.6926 30.6862C82.9751 31.2412 82.6164 31.71 82.6164 32.0925V37.7175C82.6164 37.8937 82.7701 38.1338 83.0776 38.4413C83.3851 38.7488 83.6289 38.9025 83.8051 38.9025H84.4201V39.7388H78.7951V38.9025H79.4551C79.6014 38.9025 79.8301 38.7488 80.1339 38.4413C80.4376 38.1338 80.5951 37.8937 80.5951 37.7175V30.7162C80.5951 30.5437 80.4414 30.3075 80.1339 30.015C79.8264 29.7225 79.6014 29.5763 79.4551 29.5763H78.7951V28.74H82.1701L82.6089 30.8513C83.2539 30.1763 83.8401 29.6113 84.3676 29.1563C85.0105 28.6647 85.8101 28.4235 86.6176 28.4775C87.3081 28.4636 87.985 28.6713 88.5489 29.07C88.8295 29.2727 89.0646 29.5319 89.239 29.8309C89.4134 30.1299 89.5232 30.4622 89.5614 30.8063C90.2326 30.1613 90.8514 29.6175 91.4064 29.1788C92.042 28.7142 92.8175 28.4813 93.6039 28.5188C94.4 28.4992 95.1723 28.7912 95.7564 29.3325C96.059 29.6328 96.2941 29.9942 96.446 30.3925C96.598 30.7908 96.6633 31.217 96.6376 31.6425V37.6425C96.6376 37.8188 96.7914 38.0587 97.0989 38.3662C97.4064 38.6737 97.6314 38.8275 97.7776 38.8275H98.4376V39.6637H92.8126V38.8275L93.4276 38.865ZM86.0889 8.115C85.9056 7.82808 85.6748 7.57446 85.4064 7.365C85.0314 7.0425 84.7839 6.88125 84.6564 6.88125H84.1726V6.01875H90.1051V6.855H89.4039C89.2576 6.855 89.0664 7.00125 88.8339 7.29375C88.6373 7.49834 88.5135 7.76186 88.4814 8.04375L91.1064 13.4475L93.5251 8.085C93.5264 7.93766 93.4978 7.7916 93.4411 7.65561C93.3844 7.51962 93.3007 7.39653 93.1951 7.29375C92.9451 7.00125 92.7464 6.855 92.5989 6.855H91.8751V6.01875H96.3151V6.855H95.8314C95.6851 6.855 95.4564 7.00875 95.1489 7.31625C94.9076 7.5356 94.7071 7.79585 94.5564 8.085L90.8064 16.0387L87.5814 22.2375L86.6251 21.75L89.9626 15.7275L86.0889 8.115ZM105.998 28.4625C106.61 28.4383 107.22 28.566 107.771 28.8343C108.323 29.1025 108.8 29.503 109.159 30C109.962 31.1899 110.357 32.6087 110.284 34.0425C110.343 35.5518 109.894 37.0373 109.009 38.2613C108.644 38.7833 108.157 39.2085 107.59 39.4999C107.024 39.7913 106.395 39.9403 105.758 39.9338C104.952 39.9745 104.152 39.7832 103.451 39.3825C102.832 38.9634 102.326 38.398 101.978 37.7362V43.0087C101.978 43.215 102.139 43.4625 102.461 43.7587C102.784 44.055 103.02 44.1975 103.166 44.1975H103.875V45H98.0851V44.1638H98.7901C99.0742 44.1039 99.3294 43.9492 99.5139 43.725C99.7586 43.5438 99.9238 43.2751 99.9751 42.975V30.7162C99.9751 30.5437 99.8214 30.3075 99.5139 30.015C99.3294 29.7908 99.0742 29.6361 98.7901 29.5763H98.0851V28.695H101.644L101.996 30.9825C102.397 30.2112 102.977 29.5475 103.688 29.0475C104.381 28.6204 105.184 28.4066 105.998 28.4325V28.4625ZM108.195 35.8463V35.8875L108.281 35.01C108.311 34.7185 108.326 34.4256 108.326 34.1325C108.327 33.8756 108.312 33.6189 108.281 33.3638C108.251 33.1125 108.221 32.8725 108.195 32.6363C108.123 31.8671 107.815 31.1389 107.314 30.5513C107.073 30.2991 106.782 30.1017 106.458 29.9723C106.134 29.8428 105.787 29.7845 105.439 29.8013C105.033 29.7842 104.629 29.8513 104.251 29.9985C103.872 30.1456 103.529 30.3696 103.241 30.6563C102.669 31.2588 102.247 31.9889 102.011 32.7863V35.6438C102.007 36.0536 102.086 36.4601 102.245 36.838C102.404 37.216 102.638 37.5574 102.934 37.8412C103.226 38.1408 103.576 38.3772 103.963 38.5359C104.35 38.6946 104.766 38.7721 105.184 38.7637H105.229C105.619 38.7936 106.01 38.736 106.375 38.5952C106.739 38.4544 107.068 38.234 107.336 37.95C107.828 37.3397 108.127 36.597 108.195 35.8162V35.8463ZM133.024 37.6912C133.024 37.8675 133.185 38.1075 133.508 38.415C133.83 38.7225 134.063 38.8762 134.209 38.8762H134.869V39.7125H129.113V38.8762H129.75C129.9 38.8762 130.125 38.7225 130.455 38.415C130.785 38.1075 130.939 37.8675 130.939 37.6912V31.7288C130.954 31.2484 130.808 30.7769 130.523 30.39C130.366 30.2008 130.167 30.052 129.941 29.956C129.715 29.8601 129.47 29.8199 129.225 29.8387C128.353 29.8672 127.513 30.1748 126.829 30.7162C126.021 31.3062 125.619 31.775 125.621 32.1225V37.6613C125.621 37.8675 125.783 38.115 126.105 38.4113C126.301 38.6355 126.564 38.7896 126.855 38.85H127.5V39.6863H118.17L117.863 37.4025C117.4 38.01 116.886 38.5759 116.325 39.0938C115.755 39.6302 114.997 39.9222 114.214 39.9075C113.845 39.9101 113.479 39.8373 113.139 39.6935C112.8 39.5497 112.493 39.338 112.238 39.0712C111.959 38.7886 111.74 38.4518 111.597 38.0816C111.453 37.7114 111.386 37.3156 111.401 36.9188C111.359 36.4527 111.451 35.9844 111.664 35.5681C111.878 35.1519 112.206 34.8049 112.609 34.5675C113.344 34.1422 114.135 33.824 114.96 33.6225L117.818 33.0487L117.863 31.7325C117.896 31.0691 117.676 30.4178 117.248 29.91C116.963 29.6558 116.627 29.4638 116.264 29.3463C115.9 29.2287 115.516 29.1883 115.136 29.2275C114.768 29.1832 114.394 29.2417 114.056 29.3966C113.719 29.5514 113.431 29.7966 113.224 30.105C113.059 30.4678 112.984 30.8645 113.003 31.2624C113.023 31.6602 113.137 32.0476 113.336 32.3925H112.545L111.045 30.195C111.646 29.6042 112.362 29.1432 113.148 28.8406C113.934 28.5381 114.775 28.4004 115.616 28.4363C116.692 28.3995 117.753 28.6997 118.65 29.295C119.05 29.5695 119.373 29.9417 119.588 30.3763C119.803 30.8108 119.904 31.2931 119.88 31.7775V37.665C119.88 37.8412 120.041 38.0737 120.364 38.3662C120.686 38.6587 120.919 38.8087 121.065 38.8087H122.385C122.677 38.7481 122.941 38.5925 123.135 38.3662C123.458 38.0737 123.619 37.8412 123.619 37.665V30.7162C123.619 30.5437 123.458 30.3075 123.135 30.015C122.94 29.7907 122.676 29.6366 122.385 29.5763H121.725V28.695H125.198L125.636 30.9825C126.224 30.3575 126.85 29.7701 127.511 29.2238C128.204 28.6991 129.059 28.4338 129.926 28.4737C130.329 28.4664 130.73 28.5404 131.103 28.6911C131.477 28.8419 131.816 29.0664 132.101 29.3513C132.403 29.6487 132.639 30.0058 132.795 30.3997C132.95 30.7936 133.022 31.2156 133.005 31.6388L133.024 37.6912ZM117.863 33.795L115.238 34.455C114.674 34.5466 114.16 34.8333 113.786 35.265C113.515 35.6588 113.375 36.1291 113.389 36.6075V36.6487C113.386 36.8726 113.427 37.0949 113.51 37.3028C113.593 37.5107 113.716 37.7001 113.873 37.86C114.024 38.0228 114.208 38.1517 114.413 38.2383C114.618 38.3249 114.839 38.3672 115.061 38.3625H115.125C115.714 38.3388 116.275 38.1061 116.708 37.7063C117.154 37.3495 117.534 36.9181 117.833 36.4313L117.863 33.795ZM145.811 28.74V29.5763H145.283C145.166 29.5763 144.953 29.73 144.645 30.0375C144.412 30.2599 144.199 30.5021 144.008 30.7613L140.318 38.76L137.021 44.9138L136.099 44.43L139.395 38.4075L135.529 30.8063C135.344 30.5203 135.114 30.2669 134.846 30.0563C134.471 29.7338 134.239 29.5725 134.123 29.5725H133.594V28.74H139.526V29.5763H138.866C138.72 29.5763 138.521 29.7225 138.274 30.015C138.068 30.2156 137.936 30.4799 137.899 30.765L140.524 36.1725L142.954 30.75C142.954 30.6089 142.925 30.4693 142.868 30.3401C142.811 30.211 142.728 30.0951 142.624 30C142.376 29.7075 142.178 29.5612 142.031 29.5612H141.33V28.74H145.811Z" fill="#9F9F9F"/>
</g>
<defs>
<clipPath id="clip0_2081_3608">
<rect width="145.811" height="45" fill="white"/>
</clipPath>
</defs>
</svg>
