<svg width="150" height="33" viewBox="0 0 150 33" fill="none" xmlns="http://www.w3.org/2000/svg">
<path d="M52.8468 18.8713L51.9544 21.462H51.88C51.7313 20.8778 51.4587 19.9889 51.0125 18.9221L46.2285 6.60364H41.5437V26.237H44.6421V14.1217C44.6421 13.3598 44.6421 12.4962 44.6173 11.4294C44.5926 10.8961 44.543 10.4897 44.5182 10.1849H44.5925C44.7413 10.9469 44.9148 11.5056 45.0387 11.8612L50.7894 26.1862H52.9707L58.6718 11.7342C58.7957 11.404 58.9197 10.7437 59.0436 10.1849H59.118C59.0436 11.6326 58.994 12.928 58.9692 13.7153V26.1608H62.266V6.55284H57.7547L52.8468 18.8713ZM65.3892 12.0898H68.6115V26.1608H65.3892V12.0898ZM67.0251 6.14646C66.4798 6.14646 66.0337 6.34965 65.6618 6.70524C65.29 7.06082 65.0917 7.518 65.0917 8.07678C65.0917 8.61015 65.29 9.06734 65.6618 9.42292C66.0337 9.77851 66.4798 9.9563 67.0251 9.9563C67.5705 9.9563 68.0414 9.75311 68.3885 9.42292C68.7603 9.06734 68.9586 8.61015 68.9586 8.07678C68.9586 7.5434 68.7603 7.08622 68.3885 6.70524C68.0662 6.34965 67.5953 6.14646 67.0251 6.14646M80.0385 11.9628C79.4436 11.8358 78.824 11.7596 78.2291 11.7596C76.7666 11.7596 75.4281 12.0898 74.3126 12.7502C73.1972 13.4106 72.3049 14.3249 71.7348 15.4679C71.1399 16.6362 70.8424 17.9824 70.8424 19.5317C70.8424 20.8778 71.1399 22.0716 71.71 23.1637C72.2801 24.2305 73.0733 25.0941 74.1391 25.6782C75.1554 26.2624 76.3452 26.5672 77.6837 26.5672C79.2205 26.5672 80.5343 26.237 81.5754 25.6274L81.6001 25.602V22.5542L81.4762 22.6558C81.0052 23.0113 80.4599 23.3161 79.9146 23.4939C79.3445 23.6971 78.824 23.7987 78.3778 23.7987C77.0888 23.7987 76.0726 23.4177 75.3537 22.5796C74.6101 21.7668 74.2383 20.6492 74.2383 19.2523C74.2383 17.8046 74.6101 16.6616 75.3785 15.8235C76.1469 14.9853 77.1632 14.5535 78.4026 14.5535C79.4436 14.5535 80.5095 14.9091 81.4762 15.6203L81.6001 15.7219V12.4962L81.5754 12.4708C81.154 12.293 80.683 12.0898 80.0385 11.9628M90.6723 11.8612C89.8791 11.8612 89.1355 12.1152 88.491 12.6486C87.9457 13.1058 87.5739 13.7661 87.2517 14.5535H87.2269V12.0898H84.0045V26.1608H87.2269V18.9729C87.2269 17.7538 87.4748 16.7378 88.0201 16.0012C88.5654 15.2393 89.2594 14.8583 90.1022 14.8583C90.3997 14.8583 90.6971 14.9345 91.0689 14.9853C91.416 15.0869 91.6638 15.1885 91.8373 15.3155L91.9613 15.4171V12.1152L91.8869 12.0898C91.6638 11.9374 91.2177 11.8612 90.6723 11.8612M99.4471 11.785C97.1914 11.785 95.3819 12.4708 94.1178 13.8169C92.8288 15.1631 92.2091 17.0172 92.2091 19.3539C92.2091 21.5382 92.8536 23.3161 94.093 24.6115C95.3324 25.8814 97.0179 26.5418 99.1248 26.5418C101.331 26.5418 103.091 25.856 104.355 24.4845C105.644 23.1129 106.264 21.2842 106.264 19.0237C106.264 16.7886 105.669 15.0107 104.454 13.7153C103.289 12.42 101.579 11.785 99.4471 11.785M102.025 22.605C101.43 23.3923 100.488 23.7733 99.3231 23.7733C98.1581 23.7733 97.2162 23.3923 96.5469 22.5542C95.8777 21.7668 95.5555 20.6238 95.5555 19.1761C95.5555 17.6776 95.9025 16.5346 96.5469 15.7219C97.2162 14.9091 98.1333 14.5027 99.2983 14.5027C100.439 14.5027 101.331 14.8837 101.975 15.6711C102.62 16.4584 102.967 17.6014 102.967 19.0999C102.917 20.6238 102.645 21.8176 102.025 22.605M113.452 17.9316C112.436 17.4998 111.791 17.1696 111.494 16.8902C111.246 16.6362 111.122 16.2806 111.122 15.8235C111.122 15.4425 111.271 15.0615 111.642 14.8075C112.014 14.5535 112.436 14.4265 113.055 14.4265C113.601 14.4265 114.171 14.5281 114.716 14.6805C115.261 14.8329 115.757 15.0615 116.154 15.3663L116.278 15.4679V12.3692L116.203 12.3438C115.832 12.1914 115.336 12.039 114.741 11.912C114.146 11.8104 113.601 11.7596 113.155 11.7596C111.618 11.7596 110.354 12.1406 109.362 12.9788C108.371 13.7661 107.9 14.8329 107.9 16.0774C107.9 16.7378 107.999 17.322 108.222 17.8046C108.445 18.2871 108.767 18.7443 109.213 19.1253C109.659 19.4809 110.304 19.8873 111.196 20.2683C111.94 20.5985 112.51 20.8524 112.857 21.0556C113.204 21.2588 113.427 21.4874 113.601 21.6652C113.725 21.8684 113.799 22.1224 113.799 22.4526C113.799 23.3923 113.105 23.8495 111.692 23.8495C111.147 23.8495 110.577 23.7479 109.907 23.5193C109.238 23.2907 108.618 22.9606 108.098 22.5796L107.974 22.478V25.7036L108.048 25.729C108.519 25.9576 109.089 26.11 109.783 26.2878C110.477 26.4148 111.097 26.5164 111.642 26.5164C113.303 26.5164 114.667 26.1354 115.633 25.2973C116.625 24.4845 117.145 23.4431 117.145 22.097C117.145 21.1572 116.897 20.3191 116.352 19.6841C115.633 19.0745 114.741 18.4395 113.452 17.9316M125.647 11.785C123.392 11.785 121.582 12.4708 120.318 13.8169C119.054 15.1631 118.409 17.0172 118.409 19.3539C118.409 21.5382 119.054 23.3161 120.293 24.6115C121.533 25.8814 123.218 26.5418 125.325 26.5418C127.531 26.5418 129.291 25.856 130.555 24.4845C131.844 23.1129 132.464 21.2842 132.464 19.0237C132.464 16.7886 131.869 15.0107 130.654 13.7153C129.489 12.42 127.779 11.785 125.647 11.785M128.2 22.605C127.606 23.3923 126.664 23.7733 125.499 23.7733C124.309 23.7733 123.392 23.3923 122.722 22.5542C122.053 21.7668 121.731 20.6238 121.731 19.1761C121.731 17.6776 122.078 16.5346 122.722 15.7219C123.392 14.9091 124.309 14.5027 125.474 14.5027C126.589 14.5027 127.506 14.8837 128.151 15.6711C128.795 16.4584 129.142 17.6014 129.142 19.0999C129.142 20.6238 128.82 21.8176 128.2 22.605M149.691 14.8075V12.0898H146.444V7.92438L146.345 7.94978L143.271 8.88954L143.197 8.91494V12.0898H138.339V10.3119C138.339 9.49912 138.537 8.86414 138.884 8.45776C139.231 8.05138 139.751 7.84819 140.396 7.84819C140.842 7.84819 141.313 7.94978 141.834 8.17837L141.957 8.25457V5.38449L141.883 5.35909C141.437 5.2067 140.842 5.1051 140.074 5.1051C139.107 5.1051 138.264 5.33369 137.496 5.71468C136.727 6.14646 136.157 6.73063 135.736 7.518C135.314 8.27997 135.091 9.14353 135.091 10.1341V12.0898H132.836V14.7821H135.091V26.1608H138.339V14.8075H143.197V22.0462C143.197 25.0179 144.56 26.5164 147.287 26.5164C147.733 26.5164 148.204 26.4402 148.65 26.364C149.121 26.2624 149.468 26.1354 149.666 26.0338L149.691 26.0084V23.2907L149.567 23.3923C149.369 23.5193 149.195 23.6209 148.898 23.6971C148.65 23.7733 148.427 23.7987 148.253 23.7987C147.609 23.7987 147.163 23.6463 146.841 23.2653C146.543 22.9098 146.394 22.3256 146.394 21.462V14.8075H149.691V14.8075Z" fill="#9F9F9F"/>
<g style="mix-blend-mode:luminosity">
<path d="M0 0H15.1947V15.5695H0V0Z" fill="#7C7C7C"/>
</g>
<g style="mix-blend-mode:luminosity">
<path d="M16.781 0H31.9757V15.5695H16.781V0Z" fill="#949494"/>
</g>
<g style="mix-blend-mode:luminosity">
<path d="M0 17.1951H15.1947V32.7646H0V17.1951Z" fill="#7B7B7B"/>
</g>
<g style="mix-blend-mode:luminosity">
<path d="M16.781 17.1951H31.9757V32.7646H16.781V17.1951Z" fill="#BABABA"/>
</g>
</svg>
