<svg width="128" height="39" viewBox="0 0 128 39" fill="none" xmlns="http://www.w3.org/2000/svg">
<g clip-path="url(#clip0_2081_3711)">
<path d="M13.2774 37.7582C13.2538 37.7416 13.2278 37.7189 13.2003 37.695C12.7575 37.1464 10.0193 33.7161 7.22924 29.3165C6.39238 27.9146 5.84895 26.8213 5.9533 26.5385C6.22626 25.8034 11.0903 25.401 12.5883 26.0675C13.0438 26.2698 13.0324 26.5376 13.0324 26.6935C13.0324 27.3665 12.999 29.1723 12.999 29.1723C12.9993 29.5455 13.3027 29.8481 13.6763 29.8475C14.0505 29.8475 14.3526 29.5437 14.3514 29.1696L14.3443 24.6699C14.3443 24.2793 13.9167 24.1818 13.8366 24.1666C13.0547 24.1619 11.467 24.1571 9.76216 24.1571C6.00043 24.1571 5.15983 24.3115 4.52077 23.8937C3.13612 22.9883 0.872114 16.886 0.819313 13.4526C0.744155 8.60904 3.61405 4.41573 7.65523 2.33803C9.34356 1.48793 11.2505 1.00879 13.2646 1.00879C19.6608 1.00879 24.9283 5.8366 25.6291 12.048C25.6298 12.0527 25.6298 12.0597 25.631 12.0645C25.7596 13.5661 17.4834 13.8852 15.8463 13.4483C15.5954 13.3812 15.5311 13.1243 15.5311 13.0137C15.5293 11.8718 15.5217 8.65845 15.5217 8.65845C15.5204 8.285 15.217 7.9821 14.8435 7.98305C14.4706 7.98366 14.1671 8.28718 14.1671 8.66127L14.1813 14.5806C14.1931 14.9534 14.5058 15.0541 14.5915 15.0708C15.5225 15.0711 17.6996 15.069 19.7273 15.069C22.4681 15.069 23.6192 15.3866 24.3852 15.9698C24.8945 16.3582 25.0917 17.1017 24.9194 18.068C23.3826 26.664 13.6432 37.3142 13.2774 37.7582ZM39.6873 17.6959C42.1442 18.7489 43.6664 19.9171 43.6664 22.4814C43.6664 25.101 41.6821 26.7931 38.612 26.7931C36.124 26.7931 34.127 25.6661 33.1324 23.7006L32.9715 23.3836L35.8966 21.6888L36.0883 22.002C36.7469 23.0786 37.4832 23.5375 38.5514 23.5375C39.4721 23.5375 40.0907 23.1295 40.0907 22.5218C40.0907 21.8485 39.6429 21.5962 38.2589 20.9903L37.5555 20.6886C35.6784 19.8885 33.9394 18.7768 33.9394 16.0842C33.9394 13.6645 35.7942 11.9745 38.4501 11.9745C40.4623 11.9745 41.8414 12.7535 42.7907 14.4251L42.9668 14.7354L40.1326 16.5568L39.9374 16.2073C39.4635 15.3597 39.0173 15.1897 38.4503 15.1897C37.8574 15.1897 37.4755 15.5166 37.4755 16.0236C37.4755 16.6062 37.7569 16.8619 38.9831 17.3932L39.6873 17.6959ZM60.3925 18.1917L62.4575 12.4336H66.0019L60.749 27.0306H59.9618L56.7755 20.1945C56.6273 19.8813 56.4746 19.4923 56.3429 19.1359C56.2082 19.4929 56.0517 19.8828 55.9032 20.196L52.5924 27.0306H51.8105L46.4735 12.4336H50.2597L52.3474 18.1917C52.4807 18.5589 52.6172 19.0066 52.7368 19.422C52.8786 18.9933 53.0492 18.5304 53.2274 18.1572L55.9694 12.3134H56.728L59.5125 18.1578C59.69 18.5306 59.8612 18.9939 60.0025 19.4227C60.1226 19.0066 60.2602 18.5589 60.3925 18.1917ZM70.1352 26.6115V12.1354H73.7125V26.6115H70.1352ZM85.4415 21.7478V18.5127H92.0839V25.0006L91.9466 25.1138C91.1868 25.7377 89.1721 26.7932 86.4428 26.7932C81.8387 26.7932 78.6244 23.7424 78.6244 19.3741C78.6244 15.0867 81.726 11.9746 85.9994 11.9746C88.3495 11.9746 90.072 12.637 91.2644 14.0001L91.4972 14.2664L89.0589 16.6803L88.794 16.4074C88.1131 15.7052 87.4075 15.2703 85.9993 15.2703C83.8104 15.2703 82.2814 16.9578 82.2814 19.3741C82.2814 21.8911 83.9141 23.518 86.4427 23.518C87.2814 23.518 88.1547 23.3736 88.749 23.1427V21.7479L85.4415 21.7478ZM103.57 21.7478V18.5127H110.212V25.0006L110.075 25.1138C109.314 25.7377 107.3 26.7932 104.572 26.7932C99.9675 26.7932 96.7526 23.7424 96.7526 19.3741C96.7526 15.0867 99.8547 11.9746 104.127 11.9746C106.478 11.9746 108.201 12.637 109.393 14.0001L109.626 14.2664L107.188 16.6803L106.923 16.4074C106.242 15.7052 105.536 15.2703 104.127 15.2703C101.939 15.2703 100.41 16.9578 100.41 19.3741C100.41 21.8911 102.043 23.518 104.572 23.518C105.41 23.518 106.283 23.3736 106.877 23.1427V21.7479L103.57 21.7478ZM123.32 12.1355H127.059L121.927 21.7683V26.6116H118.33V21.974L112.863 12.1355H116.853L119.379 16.751C119.651 17.2531 119.935 17.9168 120.149 18.4556C120.354 17.9212 120.626 17.2634 120.895 16.7554L123.32 12.1355Z" fill="#9F9F9F"/>
</g>
<defs>
<clipPath id="clip0_2081_3711">
<rect width="127.491" height="38" fill="white" transform="translate(0.192383 0.383545)"/>
</clipPath>
</defs>
</svg>
