<svg width="71" height="45" viewBox="0 0 71 45" fill="none" xmlns="http://www.w3.org/2000/svg">
<path d="M14.6404 22.8603C18.6098 22.8603 21.8416 19.6314 21.8416 15.6614C21.8416 11.6919 18.6127 8.4624 14.6404 8.4624C10.6709 8.4624 7.44141 11.6913 7.44141 15.6614C7.44141 19.6308 10.6709 22.8603 14.6404 22.8603V22.8603ZM14.6404 13.5164C15.8231 13.5164 16.7881 14.4791 16.7881 15.6618C16.7881 16.8445 15.8253 17.8072 14.6404 17.8072C13.4554 17.8072 12.4949 16.8445 12.4949 15.6618C12.4949 14.4791 13.4577 13.5164 14.6404 13.5164Z" fill="#1A2429"/>
<path d="M30.8654 22.5566C31.9088 21.6293 32.0024 20.0321 31.0752 18.9886C30.1479 17.9424 28.5507 17.8516 27.5072 18.7788C26.0013 20.1358 23.9647 21.9932 22.3957 22.7128C20.1142 23.8572 17.557 24.4612 14.9998 24.4612L12.847 24.4617C12.8419 24.4617 12.8368 24.464 12.8295 24.464C5.76469 24.4719 0.0185547 30.2202 0.0185547 37.2872V41.8557C0.0185547 43.2528 1.15051 44.3825 2.54531 44.3825C3.94011 44.3825 5.07207 43.2528 5.07207 41.8557V37.2872C5.07207 33.0041 8.55654 29.5175 12.8396 29.5175C12.8447 29.5175 12.8469 29.5152 12.852 29.5152H15.0021C18.3427 29.5152 21.6828 28.7268 24.6647 27.2287C26.8755 26.1368 28.9602 24.2846 30.8654 22.5565L30.8654 22.5566Z" fill="#1A2429"/>
<path d="M9.96816 31.9055C8.57337 31.9055 7.44141 33.0352 7.44141 34.4323V41.8608C7.44141 43.2579 8.57337 44.3876 9.96816 44.3876C11.363 44.3876 12.4949 43.2579 12.4949 41.8608V34.4323C12.4949 33.0375 11.363 31.9055 9.96816 31.9055Z" fill="#1A2429"/>
<path d="M19.3158 31.9045C17.921 31.9045 16.7891 33.0342 16.7891 34.4313V41.8577C16.7891 43.2547 17.921 44.3844 19.3158 44.3844C20.7106 44.3844 21.8426 43.2547 21.8426 41.8577V34.4313C21.8426 33.0337 20.7106 31.9045 19.3158 31.9045V31.9045Z" fill="#1A2429"/>
<path d="M68.2401 0.367554H22.4423C21.0475 0.367554 19.9155 1.49951 19.9155 2.89431C19.9155 4.28911 21.0475 5.42107 22.4423 5.42107H23.7942V13.6606C23.7942 15.0554 24.9262 16.1874 26.321 16.1874C26.3283 16.1874 26.3362 16.1823 26.3435 16.1823C27.7282 16.1699 28.8478 15.0475 28.8478 13.6606V5.42321H61.8472V30.8179H28.7539C28.3117 29.9357 27.4099 29.4231 26.4725 29.4332C26.1414 29.4355 25.8053 29.4986 25.4843 29.6402C24.2057 30.2014 23.622 31.6892 24.1832 32.9656C24.9536 34.7293 26.6874 35.869 28.5949 35.869H62.0751C64.7384 35.869 66.9014 33.7061 66.9014 31.0428V5.42145H68.2404C69.6374 5.42145 70.7671 4.28949 70.7671 2.89469C70.7671 1.49989 69.6374 0.367936 68.2404 0.367936L68.2401 0.367554Z" fill="#1A2429"/>
<path d="M36.5459 25.9325C37.1928 25.9325 37.8397 25.6849 38.335 25.192L42.4133 21.1113L44.1341 22.8321C44.609 23.307 45.2486 23.5727 45.9203 23.5727C46.5926 23.5727 47.2344 23.3076 47.7065 22.8321L55.9286 14.6128C56.9167 13.6275 56.9167 12.028 55.9286 11.0398C54.9404 10.0517 53.3438 10.0517 52.3556 11.0398L45.9197 17.473L44.1989 15.7522C43.724 15.2773 43.0844 15.0116 42.4127 15.0116C41.7404 15.0116 41.0986 15.2767 40.6265 15.7522L34.7597 21.6196C33.7715 22.6049 33.7715 24.2044 34.7597 25.1926C35.2521 25.6878 35.899 25.9325 36.5459 25.9325V25.9325Z" fill="#1A2429"/>
</svg>
